<svg width="382" height="382" viewBox="0 0 382 382" fill="none" xmlns="http://www.w3.org/2000/svg">
<g clip-path="url(#clip0_684_56985)">
<path d="M204.353 56.4307C204.811 53.0844 200.082 50.3187 196.53 50.036C194.834 49.8985 193.076 50.1583 191.472 49.6005C187.988 48.3858 186.598 43.8935 183.206 42.4648C180.669 41.3952 177.743 42.3425 175.283 43.5802C172.823 44.8179 170.393 46.3765 167.643 46.5522C165.252 46.705 162.654 45.7882 160.561 46.9877C159.033 47.8586 158.185 49.654 156.741 50.716C155.297 51.7779 153.501 51.9766 151.759 52.0683C150.017 52.1599 148.207 52.1829 146.625 52.9087C145.044 53.6345 143.722 55.3153 144.051 57.0266L204.353 56.4307Z" fill="#EBEBEB"/>
<path d="M74.0864 103.94C74.499 100.937 70.2664 98.4619 67.0729 98.2098C65.5449 98.0875 64.0169 98.3167 62.5347 97.8125C59.4176 96.7276 58.1723 92.7013 55.1316 91.4178C52.8396 90.4552 50.2344 91.3108 48.034 92.4186C45.8337 93.5264 43.6487 94.9246 41.158 95.085C39.0112 95.2225 36.6886 94.428 34.8092 95.4746C33.4111 96.2386 32.6853 97.866 31.3941 98.8133C30.1029 99.7607 28.4909 99.9364 26.9247 100.028C25.3626 99.9975 23.8084 100.257 22.3407 100.792C20.9197 101.441 19.7431 102.954 20.0487 104.49L74.0864 103.94Z" fill="#F5F5F5"/>
<path d="M362.488 364.474C362.488 364.581 285.706 364.672 191.008 364.672C96.31 364.672 19.5127 364.581 19.5127 364.474C19.5127 364.367 96.2641 364.275 191 364.275C285.736 364.275 362.488 364.359 362.488 364.474Z" fill="#263238"/>
<path d="M344.237 330.866C344.99 331.226 345.663 331.734 346.216 332.36C346.769 332.987 347.19 333.718 347.453 334.51C347.973 336.103 348.12 337.794 347.881 339.453C347.522 342.662 345.696 345.901 343.733 348.46C341.036 346.107 340.409 341.989 340.226 339.888C339.936 336.557 341.433 330.369 344.237 330.866Z" fill="#150A87"/>
<path d="M346.874 353.732C346.694 352.815 346.757 351.867 347.057 350.983C347.357 350.098 347.884 349.307 348.585 348.69C349.301 348.089 350.128 347.636 351.02 347.358C351.912 347.08 352.85 346.982 353.78 347.07C354.214 347.061 354.644 347.149 355.041 347.326C355.437 347.503 355.789 347.765 356.072 348.094C356.273 348.442 356.379 348.837 356.379 349.24C356.379 349.642 356.273 350.037 356.072 350.386C355.662 351.084 355.074 351.661 354.369 352.059C352.031 353.526 349.494 354.519 346.851 353.724" fill="#150A87"/>
<path d="M343.412 363.588C343.426 363.367 343.457 363.147 343.504 362.931C343.595 362.465 343.702 361.869 343.832 361.151C344.133 359.166 344.755 357.243 345.674 355.459C346.625 353.676 348.033 352.179 349.753 351.119C350.276 350.8 350.835 350.543 351.419 350.355C351.577 350.305 351.737 350.264 351.9 350.233C351.956 350.223 352.013 350.223 352.068 350.233C351.292 350.499 350.545 350.842 349.837 351.257C348.171 352.333 346.807 353.816 345.872 355.566C344.974 357.333 344.341 359.222 343.993 361.173C343.832 361.937 343.702 362.526 343.595 362.938C343.559 363.161 343.497 363.379 343.412 363.588Z" fill="#263238"/>
<path d="M343.512 335.679C343.525 335.775 343.525 335.873 343.512 335.969C343.512 336.183 343.512 336.45 343.566 336.794C343.604 337.512 343.642 338.551 343.688 339.85C343.772 342.417 343.833 345.962 343.818 349.897C343.802 353.831 343.703 357.376 343.596 359.943C343.55 361.227 343.497 362.235 343.451 362.999C343.451 363.336 343.451 363.611 343.398 363.824C343.396 363.922 343.383 364.02 343.359 364.115C343.348 364.018 343.348 363.921 343.359 363.824C343.359 363.611 343.359 363.336 343.359 362.992C343.359 362.228 343.405 361.212 343.436 359.936C343.497 357.369 343.566 353.824 343.581 349.897C343.596 345.97 343.581 342.425 343.52 339.858C343.52 338.59 343.482 337.566 343.474 336.802C343.474 336.466 343.474 336.191 343.474 335.977C343.474 335.876 343.487 335.776 343.512 335.679Z" fill="#263238"/>
<path d="M342.175 355.711C341.848 353.766 341.063 351.928 339.884 350.347C338.706 348.766 337.168 347.488 335.398 346.619C334.497 346.191 333.32 345.909 332.571 346.581C331.823 347.253 331.998 348.453 332.365 349.393C333.163 351.339 334.522 353.004 336.268 354.175C338.015 355.347 340.071 355.972 342.175 355.971" fill="#150A87"/>
<path d="M335.864 349.66C336.063 349.724 336.255 349.809 336.437 349.912C336.661 350.012 336.878 350.127 337.086 350.256C337.37 350.415 337.645 350.588 337.911 350.775C338.238 350.993 338.552 351.23 338.851 351.486C339.204 351.769 339.541 352.073 339.859 352.395C340.586 353.137 341.224 353.96 341.762 354.847C342.292 355.742 342.715 356.696 343.022 357.69C343.257 358.504 343.418 359.337 343.504 360.18C343.55 360.539 343.504 360.868 343.55 361.15C343.564 361.405 343.564 361.66 343.55 361.914C343.546 362.122 343.523 362.33 343.481 362.533C343.427 362.533 343.519 361.647 343.359 360.241C343.313 359.89 343.267 359.477 343.175 359.088C343.084 358.698 342.969 358.247 342.839 357.797C342.527 356.826 342.107 355.893 341.586 355.016C341.057 354.144 340.434 353.332 339.73 352.594C339.419 352.272 339.093 351.966 338.752 351.677C338.46 351.42 338.154 351.18 337.835 350.959C336.658 350.08 335.841 349.706 335.864 349.66Z" fill="#263238"/>
<path d="M138.997 364.482C138.771 363.769 138.595 363.041 138.469 362.304C137.679 358.816 136.497 355.428 134.947 352.204C134.593 351.546 134.276 350.867 134 350.172C134.471 350.757 134.871 351.396 135.192 352.074C136.903 355.27 138.101 358.714 138.744 362.281C138.907 363.004 138.991 363.741 138.997 364.482Z" fill="#263238"/>
<path d="M145.773 331.416C145.74 331.853 145.676 332.287 145.582 332.715C145.429 333.54 145.223 334.739 144.986 336.221C144.497 339.193 143.932 343.304 143.58 347.872C143.229 352.441 143.168 356.605 143.191 359.607C143.191 361.135 143.191 362.327 143.252 363.168C143.285 363.602 143.285 364.039 143.252 364.474C143.168 364.046 143.119 363.611 143.107 363.175C143.038 362.335 142.969 361.12 142.923 359.615C142.799 355.689 142.888 351.758 143.191 347.842C143.492 343.929 144.002 340.034 144.719 336.175C145.001 334.693 145.246 333.501 145.445 332.684C145.522 332.254 145.632 331.83 145.773 331.416Z" fill="#263238"/>
<path d="M156.653 350.447C156.26 351.087 155.834 351.707 155.377 352.303C154.37 353.795 153.496 355.373 152.764 357.017C152.047 358.669 151.482 360.382 151.076 362.136C150.943 362.875 150.773 363.607 150.564 364.329C150.551 363.571 150.63 362.814 150.801 362.075C151.47 358.475 152.958 355.077 155.148 352.143C155.574 351.515 156.08 350.945 156.653 350.447Z" fill="#263238"/>
<path d="M289.849 352.968C290.243 353.437 290.581 353.949 290.857 354.496C291.422 355.466 292.156 356.842 292.882 358.392C293.608 359.943 294.188 361.403 294.57 362.457C294.816 363.016 294.99 363.604 295.09 364.206C294.782 363.685 294.526 363.135 294.326 362.564C293.883 361.532 293.264 360.111 292.538 358.561C291.812 357.01 291.124 355.627 290.62 354.626C290.304 354.103 290.045 353.547 289.849 352.968Z" fill="#263238"/>
<path d="M303.906 339.017C303.872 339.354 303.805 339.687 303.707 340.011C303.546 340.721 303.34 341.615 303.088 342.685C302.584 344.977 301.965 348.078 301.499 351.577C301.033 355.077 300.819 358.278 300.735 360.585C300.697 361.685 300.666 362.602 300.643 363.328C300.655 363.666 300.629 364.004 300.567 364.336C300.509 364.003 300.481 363.666 300.483 363.328C300.483 362.678 300.445 361.739 300.483 360.577C300.529 357.552 300.751 354.532 301.147 351.532C301.543 348.529 302.114 345.552 302.859 342.616C303.149 341.493 303.409 340.591 303.623 339.972C303.68 339.644 303.775 339.324 303.906 339.017Z" fill="#263238"/>
<path d="M202.21 345.236C202.465 345.382 202.699 345.562 202.905 345.771C203.507 346.29 204.081 346.841 204.624 347.421C208.241 351.265 210.797 355.983 212.042 361.112C212.237 361.884 212.385 362.668 212.485 363.458C212.544 363.744 212.569 364.036 212.562 364.329C212.493 364.329 212.302 363.106 211.798 361.189C210.406 356.162 207.881 351.52 204.418 347.62C203.126 346.092 202.164 345.328 202.21 345.236Z" fill="#263238"/>
<path d="M215.45 337.107C215.483 337.468 215.483 337.831 215.45 338.192C215.45 338.956 215.45 339.957 215.45 341.141C215.45 343.632 215.55 347.07 215.878 350.859C216.207 354.649 216.711 358.049 217.139 360.501C217.345 361.67 217.521 362.648 217.658 363.404C217.745 363.757 217.796 364.118 217.811 364.482C217.682 364.141 217.58 363.791 217.506 363.435C217.33 362.763 217.108 361.777 216.864 360.555C215.588 354.165 215.019 347.655 215.168 341.141C215.168 339.888 215.244 338.849 215.305 338.185C215.318 337.822 215.366 337.461 215.45 337.107Z" fill="#263238"/>
<path d="M227.14 353.304C227.254 353.365 225.94 355.657 225.039 358.759C224.137 361.861 223.969 364.489 223.847 364.482C223.761 363.907 223.761 363.322 223.847 362.747C223.967 361.358 224.223 359.984 224.611 358.645C224.996 357.308 225.508 356.011 226.139 354.771C226.403 354.238 226.74 353.745 227.14 353.304Z" fill="#263238"/>
<path d="M103.303 333.325C104.473 338.771 105.619 344.488 105.595 345.742C105.524 348.259 102.411 352.57 100.819 351.506C99.227 350.442 68.7388 309.982 68.5557 307.72C68.5557 307.72 68.5557 307.72 68.5557 307.656C68.5557 307.394 69.0253 306.862 69.8055 306.068C71.4612 304.409 74.5817 301.757 78.3788 298.7C79.2465 297.986 80.1619 297.255 81.0933 296.509L106.996 275.636L126.539 301.455L100.915 322.511C100.915 322.511 102.117 327.767 103.303 333.309V333.325Z" fill="#EB9481"/>
<path d="M103.303 333.325C104.473 338.771 105.619 344.488 105.595 345.742C105.532 348.259 102.411 352.57 100.819 351.506C99.227 350.442 68.7388 309.982 68.5557 307.72C68.5557 307.72 68.5557 307.72 68.5557 307.656C68.5557 307.394 69.0254 306.862 69.8055 306.068C71.4612 304.409 74.5817 301.757 78.3788 298.7C79.2465 297.986 80.1619 297.255 81.0933 296.509L86.2675 292.341L106.352 318.033L100.859 322.543C100.859 322.543 102.061 327.799 103.247 333.341L103.303 333.325Z" fill="#EBEBEB"/>
<path d="M101.241 351.34C99.6487 350.26 68.9853 309.26 68.8181 306.942C68.7385 306.068 74.47 301.257 81.5547 295.644L81.7776 295.469L101.878 321.717L101.416 322.043C101.416 322.043 106.128 342.987 106.049 345.536C105.969 348.084 102.793 352.411 101.241 351.34Z" fill="#263238"/>
<path d="M102.491 349.688C97.4836 342.646 76.6354 314.714 71.1507 308.133C71.1029 308.077 71.0711 308.133 71.1507 308.133C75.9269 315.223 97.0299 342.979 102.411 349.736C102.491 349.91 102.594 349.831 102.491 349.688Z" fill="white"/>
<path d="M103.009 324.321C101.48 321.225 98.5749 318.208 95.0485 317.573C94.9132 317.573 94.8813 317.747 94.9768 317.811C97.7633 319.785 100.331 322.05 102.635 324.567C102.667 324.617 102.719 324.651 102.777 324.663C102.835 324.675 102.896 324.664 102.945 324.631C102.995 324.598 103.029 324.547 103.041 324.489C103.053 324.431 103.042 324.371 103.009 324.321Z" fill="white"/>
<path d="M103.295 327.148C101.766 324.051 98.8528 321.034 95.3343 320.399C95.199 320.399 95.1671 320.566 95.2547 320.637C98.043 322.609 100.61 324.874 102.913 327.394C102.945 327.444 102.997 327.48 103.056 327.493C103.115 327.505 103.176 327.494 103.227 327.461C103.278 327.429 103.313 327.377 103.326 327.319C103.339 327.26 103.327 327.198 103.295 327.148Z" fill="white"/>
<path d="M103.573 330.022C102.045 326.917 99.1394 323.9 95.613 323.273C95.4776 323.273 95.4458 323.44 95.5413 323.503C98.328 325.48 100.895 327.748 103.199 330.268C103.232 330.317 103.283 330.352 103.341 330.364C103.399 330.376 103.46 330.364 103.51 330.331C103.559 330.299 103.594 330.248 103.606 330.19C103.618 330.132 103.606 330.071 103.573 330.022Z" fill="white"/>
<path d="M103.183 350.863C103.445 351.808 100.858 353.491 100.261 353.11C99.664 352.729 66.3976 307.855 66.0315 306.965C65.6653 306.076 68.5788 304.321 69.3748 305.1C70.1709 305.878 103.183 350.863 103.183 350.863Z" fill="#150A87"/>
<path opacity="0.3" d="M103.183 350.863C103.445 351.808 100.858 353.491 100.261 353.11C99.664 352.729 66.3976 307.855 66.0315 306.965C65.6653 306.076 68.5788 304.321 69.3748 305.1C70.1709 305.878 103.183 350.863 103.183 350.863Z" fill="black"/>
<path d="M82.2481 305.711C81.5158 301.63 75.1475 302.765 75.8798 306.854C76.6122 310.943 82.9805 309.768 82.2481 305.711Z" fill="white"/>
<path d="M120.966 250.833C119.143 259.844 81.6419 295.818 81.6419 295.818L107.784 325.917C107.784 325.917 161.023 272.905 158.245 252.992C155.856 235.66 129.826 165.991 129.826 165.991H99.8154C99.8154 165.991 122.765 241.964 120.966 250.833Z" fill="#263238"/>
<path d="M120.966 250.833C119.143 259.844 81.6419 295.818 81.6419 295.818L107.784 325.917C107.784 325.917 161.023 272.905 158.245 252.992C155.856 235.66 129.826 165.991 129.826 165.991H99.8154C99.8154 165.991 122.765 241.964 120.966 250.833Z" fill="#285943"/>
<path d="M110.763 318.756C107.284 314.444 108.374 315.635 104.824 311.364C103.097 309.268 91.7611 295.532 89.8108 293.897C89.7631 293.857 89.6914 293.897 89.7233 293.968C91.0288 296.175 102.603 309.712 104.37 311.769C107.976 315.977 106.981 314.73 110.635 318.914C110.656 318.931 110.683 318.939 110.71 318.936C110.737 318.933 110.762 318.919 110.778 318.898C110.795 318.877 110.803 318.851 110.8 318.824C110.797 318.797 110.784 318.772 110.763 318.756Z" fill="#263238"/>
<path d="M124.692 246.434C124.262 244.187 123.777 241.94 123.299 239.701C122.328 235.128 121.296 230.563 120.202 226.006C118.043 217.008 115.694 208.033 113.158 199.083C110.594 190.127 107.896 181.187 104.783 172.406C104.393 171.318 103.987 170.238 103.605 169.159C103.598 169.144 103.585 169.132 103.57 169.125C103.554 169.118 103.537 169.117 103.521 169.122C103.505 169.127 103.491 169.137 103.481 169.151C103.472 169.165 103.468 169.182 103.47 169.198C106.168 177.995 108.946 186.761 111.478 195.613C114.009 204.466 116.326 213.279 118.523 222.171C119.621 226.641 120.648 231.127 121.651 235.613C122.145 237.82 122.628 240.03 123.1 242.242C123.683 244.485 124.1 246.767 124.35 249.07C124.43 251.253 123.814 253.404 122.591 255.215C121.468 257.049 120.139 258.78 118.865 260.511C116.302 263.981 91.8794 291.118 91.0914 291.856C91.0277 291.912 91.0914 291.999 91.1869 291.944C94.4666 289.014 115.187 266.64 117.814 263.179C119.12 261.472 120.386 259.733 121.635 257.978C122.878 256.385 123.881 254.62 124.612 252.738C125.188 250.68 125.216 248.507 124.692 246.434Z" fill="#263238"/>
<path d="M124.637 165.975L119.184 237.272C113.986 212.866 99.8242 165.975 99.8242 165.975H124.637Z" fill="#263238"/>
<path d="M112.019 312.793C112.019 312.793 118.49 344.249 118.49 344.273C118.578 350.625 118.769 356.183 119.135 359.017C119.131 359.033 119.131 359.049 119.135 359.065C119.146 359.745 119.315 360.414 119.629 361.018H119.669C121.571 362.264 172.35 363.05 174.133 362.487C175.917 361.923 174.428 356.818 172.486 355.214C170.543 353.61 151.223 344.646 151.223 344.646L144.433 313.206L112.019 312.793Z" fill="#EB9481"/>
<path d="M174.142 362.526C172.359 363.098 121.604 362.304 119.669 361.058C119.355 360.453 119.186 359.785 119.176 359.104C119.172 359.089 119.172 359.072 119.176 359.057C118.81 356.199 118.619 350.641 118.531 344.313L117.17 337.652H149.704L151.232 344.726C151.232 344.726 170.528 353.698 172.494 355.294C174.461 356.889 175.925 361.971 174.142 362.526Z" fill="#EBEBEB"/>
<path d="M174.461 362.574C172.662 363.146 121.35 362.352 119.415 361.089C118.667 360.613 118.349 353.15 118.221 344.123V343.821L151.336 343.964V344.527C151.336 344.527 170.839 353.594 172.829 355.214C174.82 356.834 176.26 362.01 174.461 362.574Z" fill="#263238"/>
<path d="M173.942 360.581C165.297 360.232 130.391 359.652 121.818 359.97C121.746 359.97 121.746 360.017 121.818 360.025C130.383 360.549 165.297 360.819 173.95 360.724C174.093 360.716 174.093 360.589 173.942 360.581Z" fill="white"/>
<path d="M154.09 344.686C150.699 344.003 146.528 344.456 143.885 346.838C143.781 346.925 143.885 347.068 144.028 347.036C147.288 346.041 150.645 345.397 154.042 345.115C154.099 345.121 154.156 345.105 154.201 345.069C154.246 345.033 154.275 344.981 154.281 344.924C154.287 344.868 154.271 344.811 154.235 344.766C154.199 344.721 154.147 344.693 154.09 344.686Z" fill="white"/>
<path d="M156.526 346.202C153.127 345.512 148.964 345.972 146.321 348.346C146.217 348.441 146.321 348.584 146.464 348.553C149.731 347.552 153.097 346.908 156.502 346.631C156.559 346.634 156.615 346.615 156.658 346.577C156.7 346.539 156.726 346.486 156.729 346.429C156.732 346.372 156.713 346.316 156.675 346.274C156.637 346.231 156.583 346.206 156.526 346.202Z" fill="white"/>
<path d="M158.962 347.719C155.563 347.028 151.391 347.489 148.757 349.863C148.653 349.958 148.757 350.101 148.9 350.069C152.166 349.069 155.532 348.425 158.938 348.148C158.995 348.151 159.051 348.131 159.093 348.093C159.136 348.055 159.162 348.002 159.165 347.945C159.168 347.889 159.148 347.833 159.11 347.79C159.072 347.748 159.019 347.722 158.962 347.719Z" fill="white"/>
<path d="M175.273 360.748C176.188 361.121 175.941 364.193 175.273 364.432C174.604 364.67 118.658 363.55 117.711 363.328C116.764 363.106 117.17 359.7 118.276 359.541C119.383 359.382 175.273 360.748 175.273 360.748Z" fill="#150A87"/>
<path opacity="0.3" d="M175.273 360.748C176.188 361.121 175.941 364.193 175.273 364.432C174.604 364.67 118.658 363.55 117.711 363.328C116.764 363.106 117.17 359.7 118.276 359.541C119.383 359.382 175.273 360.748 175.273 360.748Z" fill="black"/>
<path d="M126.603 349.704C122.917 347.791 119.924 353.507 123.626 355.42C127.327 357.334 130.304 351.617 126.603 349.704Z" fill="white"/>
<path d="M127.183 165.975C126.005 170.899 125.138 175.893 124.588 180.925C123.959 187.19 123.179 192.723 122.343 193.414C121.507 194.105 116.651 197.233 115.051 198.178C115.051 198.178 129.842 242.877 133.655 257.78C139.195 279.399 152.449 344.202 152.449 344.202H117.161C117.161 344.202 106.43 282.504 101.734 261.94C97.7535 244.314 83.0427 194.661 83.0427 194.661C77.4307 180.909 86.4896 165.991 86.4896 165.991L127.183 165.975Z" fill="#285943"/>
<path d="M149.33 337.382C144.092 337.382 145.596 337.279 140.366 337.31C137.803 337.31 120.975 337.429 118.587 337.882C118.531 337.882 118.539 337.985 118.587 337.993C120.975 338.374 137.811 337.993 140.374 337.898C145.604 337.763 144.1 337.739 149.33 337.541C149.351 337.541 149.371 337.532 149.386 337.517C149.401 337.502 149.409 337.482 149.409 337.461C149.409 337.44 149.401 337.42 149.386 337.405C149.371 337.39 149.351 337.382 149.33 337.382Z" fill="#263238"/>
<path d="M124.859 191.652C121.426 193.529 118.166 195.705 115.116 198.154C115.09 198.172 115.071 198.2 115.065 198.231C115.059 198.262 115.066 198.294 115.084 198.321C115.102 198.347 115.13 198.365 115.161 198.371C115.192 198.377 115.225 198.37 115.251 198.353C118.547 196.288 121.93 194.28 125.114 192.041C125.14 192.024 125.162 192.002 125.179 191.977C125.196 191.952 125.208 191.924 125.215 191.894C125.221 191.864 125.221 191.833 125.216 191.803C125.21 191.773 125.199 191.745 125.182 191.719C125.165 191.694 125.144 191.672 125.118 191.654C125.093 191.637 125.065 191.625 125.035 191.619C125.005 191.612 124.974 191.612 124.944 191.618C124.914 191.623 124.885 191.635 124.859 191.652Z" fill="#263238"/>
<path d="M122.201 167.896C122.201 167.777 121.954 167.785 121.978 167.896C122.58 171.642 122.989 175.415 123.204 179.202C123.315 181.044 123.418 191.31 120.147 191.064C119.597 191.064 119.247 190.548 119.04 189.762C118.889 188.71 118.867 187.643 118.977 186.586C118.977 184.434 118.977 182.283 118.809 180.131C118.548 176.148 117.875 172.203 116.803 168.357C116.794 168.335 116.778 168.317 116.757 168.306C116.735 168.294 116.711 168.291 116.688 168.295C116.664 168.3 116.643 168.313 116.628 168.331C116.613 168.35 116.604 168.373 116.604 168.397C117.552 173.864 118.084 179.395 118.196 184.943C118.196 187.61 117.496 191.747 120.298 191.723C123.1 191.699 123.928 184.839 123.992 182.989C124.079 177.901 123.477 172.824 122.201 167.896Z" fill="#263238"/>
<path d="M120.251 191.382C120.074 192.103 119.943 192.835 119.86 193.573C119.753 194.153 119.753 194.748 119.86 195.328C119.871 195.35 119.887 195.368 119.907 195.381C119.928 195.394 119.952 195.401 119.976 195.401C120 195.401 120.024 195.394 120.044 195.381C120.065 195.368 120.081 195.35 120.091 195.328C120.337 194.762 120.495 194.162 120.561 193.549C120.704 192.866 120.856 192.191 120.975 191.509C120.992 191.413 120.97 191.314 120.914 191.235C120.858 191.155 120.772 191.101 120.676 191.084C120.58 191.067 120.482 191.089 120.402 191.145C120.322 191.201 120.267 191.286 120.251 191.382Z" fill="#263238"/>
<path d="M113.045 317.962C112.95 317.168 112.846 316.334 112.727 315.516C112.504 313.928 112.241 312.404 112.002 310.848C111.517 307.72 110.983 304.6 110.41 301.479C109.304 295.263 108.022 289.07 106.677 282.901C105.881 279.415 105.029 275.97 104.09 272.524C104.026 272.286 103.692 272.397 103.732 272.635C104.297 275.811 104.846 278.939 105.491 282.083C106.136 285.227 106.78 288.339 107.401 291.468C108.635 297.66 109.789 303.877 111.015 310.07C111.358 311.817 111.676 313.571 112.018 315.318C112.185 316.191 112.361 317.065 112.552 317.93C112.743 318.795 113.013 319.653 113.157 320.526C113.157 320.606 113.292 320.526 113.276 320.487C113.157 319.653 113.141 318.795 113.045 317.962Z" fill="#263238"/>
<path d="M137.38 271.19C136.21 265.346 134.626 259.582 133.026 253.842C129.842 242.29 126.045 230.905 122.28 219.527C121.218 216.251 120.133 212.972 119.024 209.69C118.482 208.055 115.84 199.218 115.489 198.376C115.482 198.361 115.469 198.35 115.454 198.343C115.438 198.336 115.421 198.335 115.405 198.34C115.389 198.345 115.375 198.355 115.366 198.369C115.356 198.383 115.352 198.4 115.354 198.416C116.15 201.425 117.161 205.816 118.045 208.801C118.928 211.786 119.86 214.668 120.783 217.598C122.582 223.362 124.413 229.118 126.164 234.898C129.627 246.315 133.066 257.74 135.868 269.34C136.664 272.587 137.46 275.835 138.161 279.106C138.861 282.377 139.49 285.64 140.174 288.911C140.174 288.998 140.342 288.975 140.334 288.911C139.713 282.933 138.559 277.049 137.38 271.19Z" fill="#263238"/>
<path d="M115.585 302.535C113.698 291.666 111.438 280.844 108.938 270.094C106.439 259.344 103.621 248.562 100.532 237.907C97.4433 227.252 94.0283 216.701 90.3586 206.236C88.511 201.304 86.9587 196.267 85.7097 191.151C84.5794 186.07 83.5923 177.797 88.8939 167.214C88.9417 167.134 88.6471 167.087 88.5994 167.214C81.6181 179.21 84.7704 191.763 87.9068 201.25C89.6263 206.451 91.4651 211.612 93.1606 216.82C94.896 222.171 96.5624 227.541 98.1598 232.929C101.344 243.616 104.257 254.366 106.916 265.195C109.575 276.025 111.883 286.918 113.945 297.867C116.007 308.815 117.75 319.891 119.517 330.935C119.748 332.372 119.931 333.809 120.114 335.254C120.114 335.333 120.25 335.333 120.242 335.254C118.897 324.305 117.424 313.404 115.585 302.535Z" fill="#263238"/>
<path d="M92.4697 181.981C93.1861 181.711 93.9742 181.648 94.7065 181.441C95.4792 181.226 96.237 180.961 96.9752 180.647C98.3791 180.055 99.6986 179.281 100.9 178.345C102.047 177.359 102.931 176.104 103.471 174.693C103.797 173.938 105.206 169.929 105.222 169.929C105.238 169.929 105.453 169.873 105.445 169.969C105.445 170.509 104.601 173.938 104.331 174.732C103.887 176.35 102.992 177.809 101.751 178.94C100.454 180.015 98.9702 180.844 97.3733 181.386C96.5579 181.677 95.719 181.897 94.8658 182.045C94.0836 182.229 93.2743 182.269 92.4776 182.164C92.3264 182.188 92.3741 182.013 92.4697 181.981Z" fill="#263238"/>
<path d="M132.12 179.369C131.729 179.208 131.327 179.073 130.918 178.964C130.488 178.795 130.074 178.585 129.684 178.337C127.781 177.145 126.41 175.269 125.855 173.097C125.624 172.414 125.011 168.746 125.004 168.722C124.996 168.699 124.876 168.683 124.892 168.77C124.956 170.255 125.129 171.733 125.41 173.192C125.721 174.546 126.289 175.829 127.081 176.972C127.742 177.835 128.581 178.547 129.541 179.06C129.963 179.294 130.416 179.468 130.886 179.576C131.295 179.711 131.736 179.711 132.144 179.576C132.216 179.56 132.176 179.401 132.12 179.369Z" fill="#263238"/>
<path d="M122.018 114.233C139.229 130.438 154.027 148.897 155.102 157.758C156.582 170.024 148.956 173.24 145.549 173.192C136.347 173.073 119.145 136.146 113.668 121.815C108.382 107.897 118.221 110.668 122.018 114.233Z" fill="#C7C7C7"/>
<path d="M81.4675 174.399C81.5789 174.518 131.674 172.065 132.072 171.588C132.191 171.445 133.25 166.285 132.462 162.72C129.516 149.389 117.52 114.289 113.715 109.588C112.68 108.318 109.393 108.056 106.614 108.477C105.887 108.579 105.17 108.747 104.473 108.977H104.401C103.841 109.148 103.315 109.417 102.849 109.771C95.2549 116.178 81.969 159.79 81.1332 163.95C80.4167 167.563 81.2924 174.208 81.4675 174.399Z" fill="#C7C7C7"/>
<path opacity="0.1" d="M99.9111 169.484L103.095 161.854L102.96 161.926C104.232 162.069 105.517 161.79 106.614 161.132C107.692 160.46 108.576 159.518 109.177 158.401L109.424 158.004C109.495 157.861 109.559 157.718 109.623 157.575L110.005 156.718C110.204 156.122 110.419 155.535 110.57 154.931C110.721 154.328 110.865 153.716 110.952 153.105L111.207 151.255L110.976 151.477L122.741 150.826L122.447 150.564C122.555 151.536 122.728 152.498 122.964 153.446C123.196 154.394 123.513 155.319 123.912 156.209C124.305 157.127 124.843 157.977 125.504 158.726C126.168 159.493 127.013 160.083 127.963 160.441L127.772 160.243L129.739 167.785L129.985 167.452C125.018 167.746 120.059 168.087 115.076 168.436L99.9111 169.484ZM99.9111 169.484L114.845 168.77C119.86 168.524 124.907 168.285 129.97 167.976H130.296L130.216 167.658L128.29 160.108V159.965L128.139 159.909C127.286 159.569 126.532 159.023 125.942 158.321C125.336 157.604 124.84 156.801 124.469 155.939C124.084 155.079 123.775 154.186 123.545 153.272C123.31 152.356 123.137 151.425 123.028 150.485V150.215H122.757L110.992 150.946H110.793V151.16L110.578 152.978C110.498 153.581 110.347 154.169 110.228 154.772C110.108 155.376 109.885 155.939 109.71 156.519L109.352 157.353C109.288 157.496 109.233 157.631 109.169 157.766L108.938 158.163C108.383 159.234 107.561 160.145 106.55 160.806C105.525 161.45 104.318 161.742 103.111 161.64H103.008V161.719L99.9111 169.484Z" fill="black"/>
<path d="M97.3647 114.765C82.3992 129.493 68.7869 153.55 70.0765 165.991C71.3581 178.281 75.5055 176.606 76.7155 176.392C84.0947 175.066 97.7309 138.925 101.48 124.396C105.23 109.866 101.058 111.129 97.3647 114.765Z" fill="#C7C7C7"/>
<path d="M85.5109 165.689C86.1955 164.038 86.904 162.41 87.5647 160.759L89.5627 155.828C90.9001 152.533 92.2613 149.247 93.5429 145.928C94.8246 142.609 96.1619 139.322 97.4276 136.003C98.0644 134.344 98.6853 132.677 99.2744 131.001C99.8635 129.326 100.453 127.643 101.01 125.952C100.216 129.428 99.2304 132.858 98.0565 136.226C96.9181 139.6 95.6684 142.927 94.3469 146.253C93.0255 149.58 91.6324 152.843 90.1598 156.082C88.6871 159.322 87.1746 162.561 85.5109 165.689Z" fill="#263238"/>
<path d="M99.7931 130.247C100.022 129.659 100.288 129.086 100.589 128.532C100.748 128.254 100.892 127.984 101.059 127.738C101.226 127.492 101.385 127.19 101.576 126.944C101.503 127.593 101.297 128.22 100.971 128.786C100.667 129.338 100.268 129.833 99.7931 130.247Z" fill="#263238"/>
<path d="M112.552 121.268C112.552 121.268 104.687 113.098 99.4176 113.114L94.8324 116.925C94.8324 116.925 93.3518 117.361 92.9299 116.417C91.8871 114.098 91.8314 108.549 96.719 105.103C101.201 101.927 110.156 102.904 116.079 104.666C121.77 106.349 124.835 109.819 122.948 113.495C121.062 117.171 112.552 121.268 112.552 121.268Z" fill="#C7C7C7"/>
<path opacity="0.1" d="M113.181 119.537C113.181 119.537 119.908 115.059 120.672 112.296C121.436 109.533 115.952 106.738 112.377 105.555C106.853 103.769 103.048 103.967 99.8239 106.873C96.5999 109.779 113.181 119.537 113.181 119.537Z" fill="black"/>
<path d="M113.181 119.537C110.523 119.664 105.77 115.686 104.632 111.716C104.552 111.446 105.508 108.977 106.518 105.928C107.123 104.071 107.752 101.959 108.19 100.053C108.278 99.6563 119.717 105.754 119.717 105.754C118.476 108.011 117.516 110.41 116.859 112.899C116.799 113.16 116.767 113.426 116.764 113.693C116.764 113.693 116.764 113.773 116.764 113.828C116.628 115.448 116.023 119.394 113.181 119.537Z" fill="#AD6359"/>
<path d="M116.763 113.749C116.763 113.789 116.763 113.836 116.763 113.884C116.337 113.838 115.915 113.767 115.497 113.67C108.333 111.891 108.492 102.507 108.636 100.172C110.737 100.966 119.732 105.73 119.732 105.73C118.489 108.001 117.527 110.413 116.867 112.915C116.809 113.19 116.774 113.469 116.763 113.749Z" fill="#263238"/>
<path d="M105.445 93.7253C105.259 95.074 104.95 96.4028 104.521 97.6951C104.051 98.6717 101.512 99.283 101.512 99.283C101.512 99.283 103.988 100.736 104.776 100.704C105.564 100.672 107.164 98.9734 107.164 98.9734C107.164 98.9734 105.437 101.847 104.322 101.8C103.638 101.8 105.914 102.244 105.914 102.244C106.691 102.341 107.476 102.149 108.119 101.705C109.106 101.006 105.445 93.7253 105.445 93.7253Z" fill="#263238"/>
<path d="M108.939 84.4441C106.678 88.4774 106.232 101.459 108.708 104.912C112.29 109.914 119.518 111.891 124.127 107.294C128.593 102.824 128.863 85.905 125.974 82.6259C121.723 77.7908 112.29 78.4894 108.939 84.4441Z" fill="#AD6359"/>
<path d="M119.2 95.4561C119.2 95.4561 119.136 95.4561 119.136 95.5275C119.136 96.4088 118.969 97.4092 118.165 97.6632C118.165 97.6632 118.165 97.7188 118.165 97.7109C119.144 97.6156 119.335 96.2818 119.2 95.4561Z" fill="#263238"/>
<path d="M118.46 94.5194C117.051 94.3606 116.828 97.1712 118.133 97.3221C119.439 97.4729 119.638 94.6465 118.46 94.5194Z" fill="#263238"/>
<path d="M124.112 95.9167C124.112 95.9167 124.175 95.9644 124.175 96.0041C124.072 96.8695 124.112 97.8858 124.884 98.2351C124.884 98.2351 124.884 98.2907 124.884 98.2827C123.913 98.0684 123.881 96.7266 124.112 95.9167Z" fill="#263238"/>
<path d="M124.963 95.0671C126.38 95.0671 126.269 97.8936 124.963 97.8936C123.658 97.8936 123.793 95.0671 124.963 95.0671Z" fill="#263238"/>
<path d="M117.425 93.1379C117.804 93.0615 118.179 92.9635 118.547 92.8441C118.957 92.7887 119.339 92.6053 119.638 92.3201C119.711 92.2103 119.747 92.0799 119.739 91.9483C119.732 91.8167 119.683 91.6909 119.598 91.5897C119.397 91.4182 119.154 91.3029 118.894 91.2555C118.634 91.2081 118.366 91.2303 118.117 91.3197C117.587 91.4265 117.116 91.7266 116.796 92.1613C116.728 92.264 116.692 92.384 116.691 92.5068C116.691 92.6296 116.726 92.75 116.792 92.8533C116.859 92.9567 116.954 93.0385 117.066 93.089C117.178 93.1395 117.303 93.1565 117.425 93.1379Z" fill="#263238"/>
<path d="M126.245 92.8043C125.872 92.6963 125.506 92.5691 125.146 92.4232C124.743 92.3428 124.377 92.1338 124.104 91.8278C124.037 91.7142 124.01 91.5823 124.026 91.4519C124.042 91.3215 124.1 91.1998 124.191 91.1053C124.403 90.9465 124.653 90.8473 124.917 90.818C125.18 90.7886 125.446 90.8303 125.688 90.9385C126.211 91.0853 126.661 91.4188 126.953 91.8754C127.011 91.9838 127.036 92.1065 127.026 92.2288C127.016 92.3511 126.971 92.4679 126.897 92.5656C126.822 92.6633 126.721 92.7376 126.606 92.7799C126.49 92.8222 126.365 92.8307 126.245 92.8043Z" fill="#263238"/>
<path d="M118.546 100.657C118.741 101.019 119.01 101.338 119.335 101.592C119.659 101.846 120.033 102.03 120.433 102.133C120.78 102.228 121.139 102.271 121.499 102.26C121.568 102.272 121.638 102.272 121.706 102.26H121.897C121.945 102.254 121.989 102.233 122.023 102.2C122.057 102.168 122.08 102.125 122.088 102.078V101.99V101.911C122.16 101.244 122.176 100.22 122.176 100.22C122.415 100.355 123.625 101.014 123.633 100.665C123.788 97.6321 123.636 94.5917 123.179 91.5896C123.179 91.5686 123.171 91.5484 123.156 91.5335C123.141 91.5186 123.121 91.5103 123.099 91.5103C123.078 91.5103 123.058 91.5186 123.043 91.5335C123.028 91.5484 123.02 91.5686 123.02 91.5896C122.853 94.3844 123.187 97.195 123.068 100.013C122.639 99.7713 122.178 99.5922 121.698 99.4815C121.603 99.4815 121.698 101.466 121.651 101.76C121.095 101.773 120.542 101.674 120.025 101.47C119.508 101.265 119.037 100.959 118.642 100.569C118.57 100.53 118.498 100.585 118.546 100.657Z" fill="#263238"/>
<path d="M121.126 101.895C120.72 102.343 120.204 102.68 119.629 102.872C119.314 102.972 118.974 102.972 118.658 102.872C117.974 102.633 118.006 101.99 118.181 101.45C118.274 101.172 118.4 100.906 118.555 100.656C119.259 101.33 120.159 101.764 121.126 101.895Z" fill="#263238"/>
<path d="M119.63 102.872C119.314 102.972 118.975 102.972 118.659 102.872C117.974 102.633 118.006 101.99 118.181 101.45C118.547 101.492 118.889 101.654 119.151 101.912C119.414 102.169 119.582 102.507 119.63 102.872Z" fill="#FF9BBC"/>
<path d="M107.075 95.3133C109.464 95.1545 112.25 87.8421 112.25 87.8421L111.788 92.0898C113.055 91.4234 114.167 90.4982 115.052 89.3745C115.788 88.1481 116.161 86.7385 116.126 85.3094C116.126 85.3094 118.061 88.4853 120.783 89.8429C121.786 90.351 129.619 92.0025 129.723 91.5182C130.041 90.0732 128.067 84.2455 126.387 82.483C125.184 81.0915 123.635 80.0415 121.894 79.4393C120.154 78.837 118.285 78.7038 116.477 79.0531C111.414 79.847 109.543 82.5703 108.349 84.7457C107.155 86.9212 106.208 95.3133 107.075 95.3133Z" fill="#263238"/>
<path d="M109.855 95.4483C109.855 95.4483 107.817 90.8354 105.771 91.4785C103.725 92.1216 104.704 98.4176 106.71 99.6483C106.957 99.8245 107.236 99.9491 107.532 100.014C107.828 100.079 108.134 100.084 108.432 100.028C108.73 99.9711 109.013 99.8549 109.265 99.686C109.516 99.5171 109.73 99.2989 109.895 99.0449L109.855 95.4483Z" fill="#AD6359"/>
<path d="M106.097 93.2808V93.3363C107.49 94.2494 108.016 95.8055 108.286 97.3776C108.229 97.2082 108.135 97.0534 108.012 96.9238C107.888 96.7942 107.738 96.6931 107.571 96.6273C107.404 96.5616 107.225 96.5328 107.047 96.5431C106.868 96.5534 106.693 96.6024 106.535 96.6868C106.487 96.6868 106.535 96.7742 106.535 96.7742C106.821 96.7447 107.11 96.8055 107.359 96.9479C107.609 97.0903 107.808 97.3072 107.928 97.5681C108.134 97.9973 108.294 98.4471 108.406 98.9099C108.453 99.0607 108.708 99.0369 108.692 98.9099C109.106 96.9012 108.135 93.8842 106.097 93.2808Z" fill="#263238"/>
<path d="M122.646 79.5136C121.216 78.4441 119.636 77.5883 117.958 76.973C116.071 76.314 109.862 75.4962 108.135 76.4013C106.407 77.3064 104.799 82.9752 104.584 83.8089C104.369 84.6425 103.661 89.7953 105.245 91.407C106.829 93.0188 108.843 84.4361 112.362 82.1972C115.88 79.9582 122.646 79.5136 122.646 79.5136Z" fill="#150A87"/>
<path opacity="0.1" d="M122.646 79.5215C122.646 79.5215 115.88 79.9502 112.362 82.1971C108.843 84.444 106.829 93.0266 105.245 91.4149C104.545 90.7004 104.322 89.827 104.274 88.3979C105.197 85.9605 107.052 82.2606 109.735 79.9979C112.25 77.878 115.912 77.3143 119.637 77.6795C120.692 78.2061 121.698 78.8224 122.646 79.5215Z" fill="black"/>
<path d="M104.687 96.6391C105.34 94.3764 108.994 88.6996 112.202 85.7143C115.41 82.7291 123.076 82.1733 124.079 82.4512C126.467 83.1102 127.175 84.0391 127.613 83.8882C128.051 83.7374 125.91 81.3793 125.305 80.8156C124.7 80.2519 123.052 78.8943 121.985 78.6958C120.919 78.4973 114.2 77.751 111.215 80.0455C108.23 82.34 103.183 89.4538 103.374 91.5896C103.414 92.1056 103.995 92.5503 104.051 93.2807C104.13 94.2334 104.098 95.3053 104.234 95.9881C104.313 96.5438 104.6 96.8376 104.687 96.6391Z" fill="#150A87"/>
<path d="M105.127 94.3367C105.127 94.162 105.015 93.9874 104.976 93.8127C104.92 93.6133 104.888 93.4082 104.88 93.2014C104.924 92.8109 104.924 92.4168 104.88 92.0263C104.788 91.7187 104.659 91.4229 104.498 91.145C104.298 90.8426 104.209 90.4812 104.243 90.1208C104.243 90.0652 104.18 90.0494 104.172 90.1208C104.138 90.7914 104.272 91.4598 104.562 92.066C104.619 92.4842 104.64 92.9066 104.625 93.3284C104.64 93.725 104.783 94.1064 105.031 94.4161C105.043 94.4205 105.056 94.4217 105.068 94.4196C105.081 94.4174 105.092 94.4121 105.102 94.404C105.112 94.396 105.119 94.3855 105.124 94.3737C105.128 94.3619 105.129 94.3491 105.127 94.3367Z" fill="#263238"/>
<path d="M106.448 92.0183C106.271 91.7232 106.112 91.4184 105.97 91.1052C105.843 90.7898 105.736 90.4662 105.652 90.1366C105.572 89.819 105.517 89.4935 105.437 89.168C105.357 88.8425 105.214 88.374 105.134 88.0247C105.134 87.9691 105.055 88.0247 105.063 88.0247C105.134 88.4296 105.142 88.8187 105.206 89.2474C105.266 89.5957 105.346 89.9403 105.445 90.2795C105.538 90.6022 105.661 90.9158 105.811 91.2164C105.961 91.5166 106.166 91.786 106.416 92.0103C106.416 92.0103 106.464 92.0421 106.448 92.0183Z" fill="#263238"/>
<path d="M107.76 89.9541C107.365 89.4413 107.046 88.8744 106.813 88.271C106.582 87.6834 106.399 87.08 106.216 86.4766C106.216 86.4369 106.128 86.4766 106.136 86.4766C106.197 87.1294 106.339 87.7721 106.558 88.3901C106.667 88.6891 106.812 88.9742 106.988 89.2396C107.195 89.5146 107.432 89.765 107.696 89.9859C107.736 90.0335 107.792 89.9938 107.76 89.9541Z" fill="#263238"/>
<path d="M109.138 87.9929C108.928 87.7791 108.763 87.5253 108.653 87.2466C108.509 86.9529 108.374 86.6432 108.247 86.3415C108.119 86.0398 107.992 85.754 107.873 85.4602C107.727 85.1683 107.646 84.849 107.634 84.5234C107.634 84.5234 107.562 84.4757 107.562 84.5234C107.518 84.8451 107.543 85.1724 107.634 85.4841C107.711 85.8295 107.82 86.167 107.96 86.4924C108.099 86.8122 108.258 87.1225 108.438 87.4213C108.573 87.7056 108.797 87.9393 109.075 88.0882C109.122 88.1041 109.186 88.0406 109.138 87.9929Z" fill="#263238"/>
<path d="M115.124 83.3166C114.956 82.9832 114.789 82.6656 114.59 82.348C114.389 82.0279 114.168 81.7203 113.93 81.427C113.479 80.8445 112.966 80.3121 112.401 79.8391C112.401 79.8391 112.314 79.8391 112.338 79.8947C113.229 81.0539 114.176 82.1813 115.052 83.3484C115.084 83.404 115.148 83.404 115.124 83.3166Z" fill="#263238"/>
<path d="M116.932 81.6414C116.758 81.3182 116.55 81.0147 116.311 80.7363C115.787 80.1712 115.202 79.6654 114.567 79.2278L114.512 79.2834C115.029 79.8074 115.546 80.3155 116.032 80.8713C116.277 81.1402 116.506 81.4239 116.717 81.7208C116.924 82.0146 117.059 82.348 117.25 82.6577H117.306C117.251 82.2972 117.124 81.9515 116.932 81.6414Z" fill="#263238"/>
<path d="M119.016 81.1492C118.863 80.832 118.674 80.5335 118.451 80.26C118.042 79.7311 117.544 79.2771 116.979 78.9182C116.979 78.9182 116.907 78.9182 116.939 78.9817C117.428 79.4362 117.875 79.9331 118.276 80.4664C118.483 80.7284 118.674 81.0063 118.865 81.2604C119.056 81.5144 119.199 81.8558 119.414 82.102C119.414 82.102 119.462 82.102 119.454 82.102C119.339 81.771 119.193 81.452 119.016 81.1492Z" fill="#263238"/>
<path d="M120.673 80.2998C120.474 80.0457 120.259 79.8155 120.044 79.5773C119.844 79.3363 119.608 79.1274 119.344 78.958C119.304 78.958 119.272 78.958 119.296 79.0215C119.686 79.4979 120.092 79.9822 120.45 80.4586C120.769 80.9285 121.036 81.4317 121.246 81.9592H121.294C121.261 81.3559 121.044 80.777 120.673 80.2998Z" fill="#263238"/>
<path d="M122.479 80.2916C122.122 79.7846 121.671 79.3507 121.15 79.0133C121.141 79.007 121.131 79.0043 121.12 79.0058C121.11 79.0073 121.1 79.0128 121.094 79.0213C121.088 79.0297 121.085 79.0403 121.086 79.0507C121.088 79.0611 121.093 79.0705 121.102 79.0768C121.56 79.4622 121.958 79.9146 122.28 80.4186C122.6 80.9192 122.866 81.4513 123.076 82.0065H123.132C123.051 81.3919 122.828 80.8046 122.479 80.2916Z" fill="#263238"/>
<path d="M124.534 81.8162C124.5 81.6839 124.457 81.554 124.407 81.4272C124.306 81.1679 124.178 80.9203 124.024 80.6888C123.702 80.237 123.337 79.817 122.934 79.4343C122.894 79.4343 122.846 79.4343 122.878 79.4899C123.263 79.8799 123.6 80.3144 123.881 80.784C124.022 81.0122 124.144 81.2511 124.247 81.4986C124.295 81.6177 124.343 81.7447 124.383 81.8718C124.415 81.9957 124.455 82.1177 124.502 82.237C124.505 82.2437 124.51 82.2494 124.517 82.2533C124.523 82.2573 124.53 82.2594 124.538 82.2594C124.545 82.2594 124.553 82.2573 124.559 82.2533C124.565 82.2494 124.57 82.2437 124.574 82.237C124.589 82.0955 124.576 81.9523 124.534 81.8162Z" fill="#263238"/>
<path d="M125.886 82.221C125.799 82.0095 125.695 81.8051 125.576 81.6097C125.46 81.4165 125.333 81.2309 125.194 81.0539C125.05 80.8713 124.899 80.6887 124.764 80.5061C124.764 80.4584 124.668 80.5061 124.708 80.5537C124.852 80.7357 124.98 80.9296 125.09 81.1333L125.425 81.7049C125.528 81.9034 125.64 82.094 125.751 82.2845C125.846 82.4878 125.955 82.6841 126.077 82.872C126.077 82.872 126.141 82.872 126.133 82.872C126.08 82.6451 125.997 82.4262 125.886 82.221Z" fill="#263238"/>
<path d="M113.182 119.537C113.182 119.537 107.02 108.35 98.9326 107.008L99.4181 113.114C99.4181 113.114 104.266 113.281 112.553 121.268L113.182 119.537Z" fill="#C7C7C7"/>
<path d="M97.2295 113.161C98.7102 113.087 100.19 113.33 101.568 113.876C102.953 114.385 104.275 115.051 105.508 115.861C106.748 116.655 107.934 117.53 109.059 118.481L110.714 119.926L112.306 121.514L112.482 121.688L112.688 121.593C114.229 120.86 115.718 120.024 117.146 119.092C117.867 118.638 118.558 118.139 119.216 117.599C119.882 117.066 120.495 116.471 121.047 115.821C119.781 116.934 118.395 117.903 116.915 118.711C116.183 119.132 115.435 119.505 114.687 119.894C113.938 120.283 113.174 120.64 112.41 120.966L112.8 121.045L111.208 119.457C110.659 118.949 110.093 118.449 109.528 117.949C108.963 117.449 108.35 117.012 107.745 116.567C107.14 116.123 106.503 115.702 105.843 115.337C104.545 114.551 103.151 113.937 101.695 113.511C101.337 113.391 100.963 113.32 100.597 113.233C100.23 113.145 99.8484 113.106 99.4743 113.074C98.7265 112.976 97.9673 113.005 97.2295 113.161Z" fill="#263238"/>
<path d="M94.8328 116.925C96.5144 115.85 98.0547 114.57 99.418 113.114C97.7451 114.201 96.2062 115.48 94.8328 116.925Z" fill="#263238"/>
<path d="M109.838 116.822C109.056 119.277 108.486 121.796 108.134 124.348C107.88 126.127 107.784 132.605 109.798 132.613C111.812 132.621 109.082 128.104 108.931 124.674C108.779 121.244 109.981 118.87 110.347 116.861L109.838 116.822Z" fill="#150A87"/>
<g opacity="0.1">
<path d="M109.838 116.822C109.056 119.277 108.486 121.796 108.134 124.348C107.88 126.127 107.784 132.605 109.798 132.613C111.812 132.621 109.082 128.104 108.931 124.674C108.779 121.244 109.981 118.87 110.347 116.861L109.838 116.822Z" fill="black"/>
</g>
<path d="M117.154 117.298C117.568 119.596 117.784 121.926 117.799 124.261C117.799 125.849 117.146 131.724 115.331 131.502C113.516 131.279 116.501 127.532 117.051 124.451C117.6 121.371 116.78 119.116 116.684 117.306L117.154 117.298Z" fill="#150A87"/>
<g opacity="0.1">
<path d="M117.154 117.298C117.568 119.596 117.784 121.926 117.799 124.261C117.799 125.849 117.146 131.724 115.331 131.502C113.516 131.279 116.501 127.532 117.051 124.451C117.6 121.371 116.78 119.116 116.684 117.306L117.154 117.298Z" fill="black"/>
</g>
<path d="M150.548 139.505C149.879 133.677 148.422 125.539 146.385 123.792C144.347 122.046 136.45 115.853 134.181 114.972C131.913 114.09 121.787 110.017 119.853 111.049C118.332 111.883 120.02 115.869 124.836 117.869C127.446 119.021 129.985 120.328 132.438 121.784C133.672 122.347 136.569 126.436 135.71 128.199C135.208 129.239 132.112 130.398 130.233 129.493C128.354 128.588 127.964 124.824 125.839 122.998C123.713 121.172 119.861 121.299 119.614 122.331C119.367 123.364 120.625 123.872 122.503 127.429C123.713 129.715 123.674 135.13 126.444 139.084C127.849 141.418 129.109 143.836 130.217 146.325L150.548 139.505Z" fill="#AD6359"/>
<path d="M123.873 121.355C123.174 121.233 122.524 120.92 121.994 120.45C121.782 120.23 121.639 119.955 121.58 119.656C121.556 119.495 121.556 119.332 121.58 119.172C121.58 119.021 121.644 118.798 121.779 118.711C121.914 118.624 121.779 118.64 121.739 118.711C121.683 118.791 121.621 118.868 121.556 118.941C121.508 119.007 121.471 119.079 121.445 119.156C121.381 119.306 121.348 119.468 121.349 119.632C121.357 119.986 121.483 120.327 121.707 120.601C121.979 120.898 122.315 121.129 122.691 121.275C123.067 121.421 123.471 121.478 123.873 121.442C123.873 121.442 123.904 121.363 123.873 121.355Z" fill="#263238"/>
<path d="M146.384 123.792C144.601 120.847 140.015 115.511 135.343 113.606C132.206 112.312 121.165 117.353 121.436 119.442C121.707 121.53 123.561 121.577 126.332 121.315C127.343 121.22 132.7 119.449 133.583 120.577C134.849 122.212 136.37 127.722 136.37 127.722L146.384 123.792Z" fill="#AD6359"/>
<path d="M121.724 118.632C123.125 116.44 126.118 115.321 129.087 114.456V114.527C128.331 114.749 123.475 116.837 121.732 118.671C121.739 118.687 121.708 118.656 121.724 118.632Z" fill="#263238"/>
<path d="M146.384 123.792C144.601 120.847 140.015 115.511 135.343 113.606C132.206 112.312 123.402 118.886 123.681 120.974C123.959 123.062 126.618 123.292 129.603 122.339C130.567 122.03 133.83 119.854 134.706 120.99C135.972 122.578 139.052 126.667 139.052 126.667L146.384 123.792Z" fill="#AD6359"/>
<path d="M137.277 124.165C136.991 123.697 136.895 123.538 136.601 123.078C136.306 122.617 136.004 122.165 135.685 121.728C135.427 121.328 135.105 120.974 134.73 120.68C134.339 120.441 133.88 120.338 133.425 120.386C132.403 120.574 131.432 120.974 130.575 121.561C129.588 122.093 127.55 122.951 126.006 122.752C125.582 122.717 125.17 122.596 124.796 122.395C124.511 122.255 124.265 122.048 124.079 121.792C123.442 120.64 124.31 119.41 125.186 118.473C126.911 116.855 128.914 115.562 131.1 114.654C131.618 114.416 132.135 114.193 132.692 113.971C133.278 113.674 133.922 113.506 134.579 113.479C135.654 113.479 137.381 114.63 137.922 114.971C137.962 114.971 137.994 114.924 137.922 114.9C137.269 114.479 135.669 113.106 133.942 113.145C133.308 113.224 132.693 113.415 132.127 113.709C131.522 113.955 130.917 114.217 130.32 114.503C129.158 115.04 128.041 115.666 126.977 116.377C125.911 117.026 124.975 117.866 124.214 118.854C123.898 119.295 123.706 119.813 123.66 120.354C123.614 120.895 123.714 121.438 123.952 121.926C124.176 122.234 124.464 122.49 124.797 122.676C125.129 122.862 125.498 122.975 125.878 123.006C126.33 123.066 126.788 123.066 127.239 123.006C128.251 122.81 129.249 122.545 130.225 122.212C131.172 121.863 132.04 121.252 133.011 120.982C133.241 120.907 133.483 120.88 133.724 120.902C133.965 120.924 134.199 120.994 134.412 121.109C134.796 121.384 135.14 121.713 135.431 122.085C136.059 122.734 136.626 123.438 137.126 124.189C137.254 124.42 137.397 124.356 137.277 124.165Z" fill="#263238"/>
<path d="M147.674 126.349C147.029 124.96 146.018 119.251 144.959 117.481C143.901 115.71 139.029 109.541 136.673 109.763C133.719 110.025 136.673 115.393 138.153 117.616C139.634 119.839 139.292 123.531 139.292 123.531L147.674 126.349Z" fill="#AD6359"/>
<path d="M136.116 113.947C136.639 114.666 137.125 115.411 137.572 116.178C138.046 116.867 138.469 117.588 138.838 118.338C139.141 119.117 139.316 119.94 139.355 120.775C139.355 121.188 139.355 121.569 139.355 122.006C139.355 122.443 139.292 122.903 139.292 123.348C139.292 123.395 139.22 123.403 139.22 123.348C139.184 122.528 139.096 121.711 138.957 120.902C138.836 120.062 138.609 119.24 138.281 118.457C137.628 116.869 136.689 115.504 135.988 113.955C135.988 113.947 135.989 113.939 135.992 113.931C135.994 113.923 135.999 113.915 136.004 113.909C136.015 113.897 136.031 113.889 136.048 113.888C136.065 113.887 136.081 113.892 136.094 113.904C136.107 113.915 136.115 113.931 136.116 113.947Z" fill="#263238"/>
<path d="M139.267 124.15C139.337 125.57 139.043 126.985 138.416 128.262C138.132 128.914 137.799 129.542 137.421 130.144C137.041 130.741 136.621 131.311 136.163 131.851C135.279 132.879 134.53 134.016 133.934 135.233C133.364 136.479 132.952 137.792 132.708 139.139C132.654 137.735 132.87 136.334 133.345 135.011C133.857 133.681 134.586 132.444 135.502 131.351C136.38 130.313 137.148 129.188 137.795 127.992C138.498 126.803 138.996 125.504 139.267 124.15Z" fill="#263238"/>
<path d="M144.736 172.74C139.02 171.771 135.597 162.061 129.611 144.999C128.568 141.998 144.203 124.356 146.145 127.127C148.597 130.628 154.862 149.89 155.411 155.098C156.501 165.364 151.415 173.915 144.736 172.74Z" fill="#AD6359"/>
<path d="M132.764 154.51L151.869 137.218C151.869 137.218 156.589 152.835 155.849 159.282C155.109 165.729 152.617 173.033 144.792 173.168C138.989 173.271 132.764 154.51 132.764 154.51Z" fill="#C7C7C7"/>
<path d="M138.321 167.134C137.684 166.166 137.119 165.157 136.578 164.141C136.037 163.125 135.527 162.093 135.042 161.045C134.556 159.997 134.118 158.933 133.728 157.869C133.308 156.788 132.986 155.672 132.765 154.534C133.219 155.598 133.704 156.638 134.19 157.71L135.631 160.83C136.1 161.878 136.578 162.926 137.024 164.006C137.47 165.086 137.923 166.047 138.321 167.134Z" fill="#263238"/>
<path d="M136.641 157.773C137.572 156.829 138.591 155.947 139.578 155.05C140.565 154.153 141.561 153.272 142.571 152.39C144.588 150.644 146.615 148.913 148.653 147.198C149.218 146.73 149.776 146.269 150.349 145.809C150.922 145.348 151.622 144.903 152.227 144.411C152.275 144.372 152.331 144.411 152.291 144.483C151.798 144.919 151.376 145.427 150.898 145.872C150.42 146.317 149.895 146.793 149.386 147.246C148.383 148.127 147.388 149.008 146.377 149.882C144.363 151.636 142.341 153.375 140.271 155.058C139.109 156.011 137.954 157.003 136.729 157.885C136.657 157.932 136.585 157.837 136.641 157.773Z" fill="#263238"/>
<path d="M116.757 117.79L111.718 142.617C111.495 143.355 111.885 143.919 112.593 143.887L125.282 143.284C125.668 143.237 126.032 143.083 126.334 142.838C126.635 142.594 126.861 142.269 126.986 141.902L132.017 117.068C132.247 116.337 131.857 115.765 131.149 115.805L118.452 116.401C118.066 116.448 117.702 116.603 117.402 116.849C117.101 117.095 116.878 117.422 116.757 117.79Z" fill="#081B24"/>
<path d="M118.22 117.703L113.181 142.538C112.959 143.268 113.349 143.84 114.057 143.8L126.754 143.205C127.139 143.156 127.502 142.999 127.802 142.753C128.102 142.508 128.327 142.182 128.449 141.815L133.48 116.988C133.711 116.25 133.321 115.686 132.613 115.718L119.916 116.321C119.531 116.368 119.167 116.522 118.867 116.767C118.567 117.011 118.343 117.336 118.22 117.703Z" fill="#263238"/>
<path d="M121.795 118.663C121.802 118.877 121.744 119.088 121.63 119.269C121.516 119.45 121.351 119.593 121.155 119.681C120.959 119.768 120.742 119.795 120.53 119.759C120.319 119.723 120.123 119.625 119.968 119.478C119.812 119.33 119.704 119.14 119.657 118.932C119.61 118.723 119.626 118.505 119.703 118.306C119.781 118.106 119.916 117.934 120.091 117.811C120.266 117.688 120.475 117.62 120.689 117.615C120.975 117.609 121.251 117.715 121.459 117.912C121.666 118.108 121.787 118.378 121.795 118.663Z" fill="#081B24"/>
<path d="M75.004 176.559C80.5762 176.693 86.9445 171.652 103.279 156.71C105.54 154.645 95.1835 134.82 92.6521 136.908C89.468 139.536 77.7026 150.406 76.9463 151.327C70.5382 158.941 71.2148 176.471 75.004 176.559Z" fill="#AD6359"/>
<path d="M87.0154 143.879C87.0154 143.879 91.2742 136.218 94.7609 132.883C98.4778 129.513 102.957 127.088 107.816 125.817C113.062 124.436 126.69 124.698 127.303 128.628C127.852 132.185 113.929 131.216 113.929 131.216C113.929 131.216 128.258 129.874 128.163 134.273C128.067 138.671 111.939 136.654 111.939 136.654C111.939 136.654 126.722 135.606 125.87 140.132C125.225 143.546 110.546 142.514 110.546 142.514C110.546 142.514 123.283 141.72 122.75 145.245C122.184 149.159 108.572 149.048 108.572 149.048C105.754 157.837 100.612 160.807 96.8465 162.545C95.9311 162.934 87.0154 143.879 87.0154 143.879Z" fill="#AD6359"/>
<path d="M108.932 131.359C110.611 131.144 112.315 130.906 114.01 130.843C115.706 130.779 117.402 130.763 119.097 130.843C121.311 130.912 123.51 131.237 125.648 131.811C121.78 131.073 115.706 131.232 114.01 131.295C112.315 131.359 110.627 131.351 108.932 131.414C108.892 131.43 108.892 131.367 108.932 131.359Z" fill="#263238"/>
<path d="M109.074 137.464C111.231 137.282 113.365 137.02 115.53 136.924C117.695 136.829 119.741 136.924 121.898 136.996C122.065 136.996 122.01 137.083 121.842 137.091C119.685 137.091 117.695 137.313 115.538 137.361C113.38 137.409 111.215 137.361 109.074 137.52C109.034 137.52 109.042 137.472 109.074 137.464Z" fill="#263238"/>
<path d="M108.246 142.729C111.549 142.363 114.881 142.339 118.188 142.657C118.356 142.657 118.268 142.777 118.101 142.769C114.789 142.769 112.194 142.681 108.262 142.848C108.198 142.848 108.174 142.745 108.246 142.729Z" fill="#263238"/>
<path d="M86.698 141.061L96.5928 165.737C96.5928 165.737 79.08 178.909 74.5585 176.455C70.037 174.002 71.1196 158.988 75.1873 152.851C76.8829 150.287 86.698 141.061 86.698 141.061Z" fill="#C7C7C7"/>
<path d="M87.0244 141.878L86.6503 141.085H86.7219C85.1298 142.728 83.49 144.364 81.9059 146.031C80.3218 147.698 78.7217 149.342 77.2172 151.072C76.4532 151.914 75.7458 152.805 75.0998 153.74C74.4847 154.694 73.9521 155.698 73.5077 156.741C72.6465 158.865 72.1253 161.11 71.9634 163.395C71.8841 161.07 72.2544 158.752 73.054 156.567C73.451 155.469 73.9661 154.417 74.5903 153.431C75.234 152.457 75.9441 151.528 76.7157 150.652C78.2441 148.913 79.8601 147.269 81.4919 145.658C83.1238 144.046 84.8592 142.482 86.6264 141.021L86.6742 140.973V141.037L87.0244 141.878Z" fill="#263238"/>
<path d="M83.2901 147.849C83.8632 149.048 84.3329 150.303 84.8344 151.541C85.3359 152.78 85.8215 154.01 86.2911 155.257C87.2305 157.75 88.1618 160.251 89.0613 162.76C89.3081 163.442 89.5469 164.133 89.7778 164.824C90.0086 165.515 90.1837 166.332 90.4385 167.071C90.4385 167.126 90.3748 167.158 90.3509 167.071C90.1121 166.459 89.7857 165.888 89.5549 165.284C89.324 164.681 89.0454 164.022 88.7986 163.395C88.3131 162.148 87.8354 160.91 87.3578 159.663C86.4185 157.17 85.4792 154.677 84.6194 152.152C84.1339 150.731 83.5926 149.31 83.1945 147.865C83.2056 147.851 83.2215 147.842 83.2392 147.839C83.2569 147.836 83.275 147.839 83.2901 147.849Z" fill="#263238"/>
<path d="M78.6493 176.233C80.4245 176.233 82.0723 175.352 83.6485 174.645C86.7787 173.058 89.7622 171.198 92.5641 169.087C94.0049 168.031 95.4059 166.904 96.791 165.777L96.7433 165.673C96.401 164.959 96.0746 164.244 95.7164 163.538C95.9393 164.292 96.202 165.038 96.4487 165.792L96.4965 165.602C93.9332 167.309 90.3511 169.738 87.8038 171.39C84.8664 173.152 82.0166 175.36 78.6493 176.225V176.233Z" fill="#263238"/>
<path d="M318.511 322.927L218.542 322.874C212.768 322.87 207.231 320.573 203.15 316.489C199.068 312.404 196.775 306.867 196.775 301.092L196.829 50.4239C196.829 47.5632 197.393 44.7306 198.488 42.0878C199.583 39.4451 201.188 37.0441 203.212 35.022C205.235 32.9999 207.637 31.3963 210.281 30.303C212.924 29.2096 215.757 28.6479 218.618 28.6499L318.588 28.7416C324.362 28.7456 329.898 31.0423 333.98 35.1267C338.061 39.2111 340.354 44.749 340.354 50.5232L340.308 301.161C340.306 304.022 339.741 306.854 338.644 309.495C337.548 312.137 335.942 314.537 333.918 316.559C331.894 318.58 329.491 320.182 326.848 321.275C324.204 322.368 321.372 322.929 318.511 322.927Z" fill="#263238"/>
<path d="M318.48 38.0458H299.098C297.822 38.0759 296.61 38.6107 295.728 39.5331C294.845 40.4554 294.365 41.6899 294.391 42.966V46.4804C294.406 47.1125 294.295 47.7412 294.066 48.3306C293.838 48.9201 293.495 49.4586 293.058 49.9155C292.621 50.3724 292.098 50.7387 291.519 50.9936C290.941 51.2484 290.317 51.3867 289.685 51.4006H251.905C251.273 51.3867 250.65 51.2484 250.071 50.9936C249.493 50.7387 248.97 50.3724 248.533 49.9155C248.096 49.4586 247.753 48.9201 247.524 48.3306C247.295 47.7412 247.185 47.1125 247.199 46.4804V42.9202C247.226 41.6441 246.745 40.4096 245.863 39.4872C244.981 38.5649 243.769 38.0301 242.493 38H235.67H218.71C214.657 38 210.771 39.6099 207.905 42.4754C205.039 45.341 203.43 49.2275 203.43 53.28L203.384 297.92C203.384 301.966 204.988 305.847 207.846 308.712C210.703 311.576 214.58 313.19 218.626 313.2L318.404 313.254C322.457 313.254 326.343 311.644 329.209 308.778C332.074 305.913 333.684 302.026 333.684 297.974L333.737 53.3335C333.74 49.2836 332.134 45.3986 329.273 42.532C326.412 39.6655 322.53 38.0519 318.48 38.0458Z" fill="white"/>
<path d="M333.73 52.861C333.73 48.8085 332.12 44.922 329.255 42.0564C326.389 39.1909 322.503 37.581 318.45 37.581H299.067C297.791 37.6111 296.579 38.1459 295.697 39.0683C294.815 39.9906 294.335 41.2251 294.361 42.5012V46.0156C294.375 46.6477 294.265 47.2764 294.036 47.8658C293.807 48.4552 293.464 48.9938 293.027 49.4507C292.59 49.9076 292.068 50.2739 291.489 50.5287C290.91 50.7836 290.287 50.9219 289.655 50.9357H251.875C251.243 50.9219 250.62 50.7836 250.041 50.5287C249.463 50.2739 248.94 49.9076 248.503 49.4507C248.066 48.9938 247.723 48.4552 247.494 47.8658C247.265 47.2764 247.155 46.6477 247.169 46.0156V42.4783C247.196 41.2022 246.715 39.9677 245.833 39.0453C244.951 38.123 243.739 37.5882 242.463 37.5581H235.64H218.679C214.627 37.5581 210.74 39.168 207.875 42.0335C205.009 44.8991 203.399 48.7856 203.399 52.8381L203.354 76.2318H333.722L333.73 52.861Z" fill="#F5F5F5"/>
<g opacity="0.5">
<path d="M224.723 196.342V201.071H229.452V196.342V191.605H224.723V196.342Z" fill="#263238"/>
<path d="M229.452 167.959H224.723V172.688H229.452V167.959Z" fill="#263238"/>
<path d="M258.682 220.033H253.953V224.762H258.682V220.033Z" fill="#263238"/>
<path d="M229.452 177.417V182.146H224.723V186.875H229.452V191.605H234.181H238.918V196.341H243.647V191.605H248.376V186.875V182.146H243.647V186.875H238.918H234.181V182.146V177.417V172.688H229.452V177.417Z" fill="#263238"/>
<path d="M238.917 167.959H234.181V172.688H238.917H243.647V167.959H238.917Z" fill="#263238"/>
<path d="M260.202 205.983H262.739V201.254H260.202H257.658V205.983H260.202Z" fill="#263238"/>
<path d="M248.376 172.688H243.646V177.417H248.376V172.688Z" fill="#263238"/>
<path d="M281.488 191.605H276.759V196.334H281.488V191.605Z" fill="#263238"/>
<path d="M286.216 139.576H281.487V144.306H286.216V139.576Z" fill="#263238"/>
<path d="M257.834 177.417V172.688H262.563V167.959H257.834V163.23H253.105V167.959H248.376V172.688H253.105V177.417V182.146V186.876V191.605H257.834V186.876V182.146H262.563V177.417H257.834Z" fill="#263238"/>
<path d="M281.488 224.716H286.217V219.987H281.488H276.759V224.716H281.488Z" fill="#263238"/>
<path d="M276.758 139.576H272.029V144.306H276.758V139.576Z" fill="#263238"/>
<path d="M275.574 177.417V172.688H270.845V167.959H266.116V172.688V177.417H261.387V182.146H266.116H270.845V177.417H275.574Z" fill="#263238"/>
<path d="M302.268 167.959H297.539V172.688H302.268V167.959Z" fill="#263238"/>
<path d="M253.243 191.605H248.514V196.334H253.243V191.605Z" fill="#263238"/>
<path d="M272.029 163.23V158.501H276.759V153.764H281.488H286.217V149.035H281.488V144.305H276.759V149.035H272.029V153.764H267.293V158.501H262.563V163.23H267.293H272.029Z" fill="#263238"/>
<path d="M272.029 196.341V191.605H276.759V186.875H272.029H267.293V191.605H262.563V196.341H267.293H272.029Z" fill="#263238"/>
<path d="M286.217 215.258V210.521H281.487H276.758V205.792H272.029V210.521H267.292V215.258H262.563H257.834V219.987H262.563H267.292H272.029V215.258H276.758V219.987H281.487V215.258H286.217Z" fill="#263238"/>
<path d="M267.293 144.306V139.576H262.564H257.835V144.306H253.105V149.035H257.835H262.564V144.306H267.293Z" fill="#263238"/>
<path d="M267.293 149.035H262.563V153.764H267.293V149.035Z" fill="#263238"/>
<path d="M279.12 167.959H274.391V172.688V177.417V182.147H279.12H283.849V177.417H279.12V172.688H283.849V167.959H288.578V163.23H283.849V158.501H279.12V163.23V167.959Z" fill="#263238"/>
<path d="M262.563 153.764H257.834V158.493H262.563V153.764Z" fill="#263238"/>
<path d="M276.759 201.071V205.8H281.488H286.217V201.071H290.946H295.675V196.342H290.946H286.217H281.488V201.071H276.759Z" fill="#263238"/>
<path d="M302.268 182.146H297.539V186.876H302.268V182.146Z" fill="#263238"/>
<path d="M286.216 186.875H281.487V191.605H286.216V186.875Z" fill="#263238"/>
<path d="M298.043 172.688H293.314H288.577V177.417H293.314V182.146H298.043V177.417V172.688Z" fill="#263238"/>
<path d="M295.675 186.875H290.946V191.605H295.675V186.875Z" fill="#263238"/>
<path d="M243.647 215.35H257.842V196.334H238.826V201.071H234.188V205.8H238.826V210.529H234.188V215.258H238.826V215.35H238.918V219.987H234.188V229.446H238.918V224.701H243.647V215.35ZM254.198 199.971V211.797H242.371V199.971H254.198Z" fill="#263238"/>
<path d="M305.133 196.342H309.862V191.605H305.133H300.404H295.675V196.342H300.404H305.133Z" fill="#263238"/>
<path d="M305.134 177.417H309.863V172.688V167.959H305.134V172.688V177.417Z" fill="#263238"/>
<path d="M267.476 201.254H262.739V205.983V210.712H267.476V205.983V201.254Z" fill="#263238"/>
<path d="M314.591 196.342H309.862V201.071H314.591V196.342Z" fill="#263238"/>
<path d="M314.599 186.876V182.146H309.862V186.876V191.605H314.599V186.876Z" fill="#263238"/>
<path d="M229.452 219.987H224.723V224.716V229.446H229.452V224.716V219.987Z" fill="#263238"/>
<path d="M314.599 163.23V139.546H290.915V163.23H314.599ZM294.491 159.677V143.121H311.046V159.677H294.491Z" fill="#263238"/>
<path d="M307.502 146.674H298.044V156.132H307.502V146.674Z" fill="#263238"/>
<path d="M314.599 205.8H290.915V229.446H314.599V205.8ZM294.491 225.901V209.345H311.046V225.901H294.491Z" fill="#263238"/>
<path d="M307.502 212.89H298.044V222.348H307.502V212.89Z" fill="#263238"/>
<path d="M224.669 139.576V163.26H248.299V139.576H224.669ZM244.77 143.121V159.677H228.214V143.121H244.77Z" fill="#263238"/>
<path d="M241.217 146.674H231.759V156.132H241.217V146.674Z" fill="#263238"/>
<path d="M217.923 156.063V139.255C217.816 137.713 218.29 136.187 219.253 134.977C219.829 134.341 220.539 133.84 221.331 133.51C222.123 133.179 222.979 133.028 223.837 133.067H241.5C241.64 133.067 241.774 133.012 241.873 132.913C241.972 132.814 242.027 132.68 242.027 132.54C242.027 132.4 241.972 132.266 241.873 132.167C241.774 132.068 241.64 132.013 241.5 132.013H224.05C222.573 131.939 221.107 132.308 219.841 133.075C218.931 133.681 218.184 134.5 217.664 135.462C217.145 136.423 216.869 137.498 216.861 138.591C216.815 141.356 216.861 144.13 216.861 146.888V156.056C216.877 156.186 216.939 156.305 217.037 156.392C217.135 156.479 217.261 156.527 217.392 156.527C217.523 156.527 217.649 156.479 217.747 156.392C217.845 156.305 217.908 156.186 217.923 156.056V156.063Z" fill="#150A87"/>
<path d="M239.972 237.437H223.164C221.622 237.541 220.097 237.067 218.886 236.108C218.25 235.531 217.75 234.821 217.419 234.029C217.089 233.236 216.938 232.381 216.976 231.524V213.837C216.976 213.697 216.92 213.563 216.821 213.464C216.722 213.366 216.588 213.31 216.448 213.31C216.309 213.31 216.174 213.366 216.076 213.464C215.977 213.563 215.921 213.697 215.921 213.837V231.31C215.848 232.788 216.218 234.253 216.983 235.52C217.589 236.429 218.409 237.175 219.371 237.694C220.332 238.212 221.407 238.486 222.499 238.491C225.265 238.537 228.031 238.491 230.796 238.491H239.964C240.104 238.491 240.238 238.436 240.337 238.337C240.436 238.238 240.491 238.104 240.491 237.964C240.491 237.825 240.436 237.69 240.337 237.592C240.238 237.493 240.104 237.437 239.964 237.437H239.972Z" fill="#150A87"/>
<path d="M320.834 213.669V230.477C320.942 232.019 320.467 233.546 319.505 234.756C318.929 235.392 318.219 235.894 317.427 236.224C316.634 236.554 315.778 236.705 314.921 236.666H297.234C297.094 236.666 296.96 236.721 296.861 236.82C296.763 236.919 296.707 237.053 296.707 237.193C296.707 237.333 296.763 237.467 296.861 237.565C296.96 237.664 297.094 237.72 297.234 237.72H314.707C316.185 237.794 317.651 237.424 318.917 236.658C319.826 236.052 320.572 235.232 321.091 234.271C321.609 233.309 321.883 232.234 321.888 231.142C321.942 228.376 321.888 225.611 321.888 222.845V213.677C321.888 213.537 321.833 213.403 321.734 213.304C321.635 213.205 321.501 213.15 321.361 213.15C321.222 213.15 321.087 213.205 320.989 213.304C320.89 213.403 320.834 213.537 320.834 213.677V213.669Z" fill="#150A87"/>
<path d="M297.539 133.075H314.347C315.89 132.969 317.417 133.446 318.625 134.412C319.264 134.986 319.766 135.696 320.097 136.489C320.427 137.281 320.577 138.138 320.535 138.996V156.705C320.535 156.845 320.591 156.979 320.69 157.078C320.789 157.177 320.923 157.232 321.063 157.232C321.202 157.232 321.337 157.177 321.435 157.078C321.534 156.979 321.59 156.845 321.59 156.705V139.21C321.664 137.729 321.294 136.261 320.528 134.992C319.922 134.083 319.102 133.336 318.14 132.818C317.179 132.3 316.104 132.026 315.012 132.02C312.246 131.975 309.48 132.02 306.715 132.02H297.547C297.407 132.02 297.273 132.076 297.174 132.175C297.075 132.274 297.02 132.408 297.02 132.548C297.02 132.687 297.075 132.821 297.174 132.92C297.273 133.019 297.407 133.075 297.547 133.075H297.539Z" fill="#150A87"/>
</g>
</g>
<defs>
<clipPath id="clip0_684_56985">
<rect width="382" height="382" fill="white"/>
</clipPath>
</defs>
</svg>
