<svg width="350" height="350" viewBox="0 0 350 350" fill="none" xmlns="http://www.w3.org/2000/svg">
<path d="M94.157 135.548V140.798H99.407V135.548V130.305H94.157V135.548Z" fill="#EBEBEB"/>
<path d="M99.407 104.069H94.157V109.319H99.407V104.069Z" fill="#EBEBEB"/>
<path d="M131.831 161.84H126.581V167.09H131.831V161.84Z" fill="#EBEBEB"/>
<path d="M99.407 114.562V119.805H94.157V125.055H99.407V130.305H104.657H109.9V135.548H115.15V130.305H120.393V125.055V119.805H115.15V125.055H109.9H104.657V119.805V114.562V109.312H99.407V114.562Z" fill="#EBEBEB"/>
<path d="M109.9 104.069H104.657V109.312H109.9H115.15V104.069H109.9Z" fill="#EBEBEB"/>
<path d="M133.511 146.251H136.332V141.001H133.511H130.697V146.251H133.511Z" fill="#EBEBEB"/>
<path d="M120.4 109.312H115.15V114.562H120.4V109.312Z" fill="#EBEBEB"/>
<path d="M157.129 130.305H151.879V135.555H157.129V130.305Z" fill="#EBEBEB"/>
<path d="M162.379 72.583H157.129V77.833H162.379V72.583Z" fill="#EBEBEB"/>
<path d="M130.893 114.562V109.312H136.136V104.069H130.893V98.819H125.643V104.069H120.393V109.312H125.643V114.562V119.805V125.055V130.305H130.893V125.055V119.805H136.136V114.562H130.893Z" fill="#EBEBEB"/>
<path d="M157.129 167.034H162.372V161.784H157.129H151.879V167.034H157.129Z" fill="#EBEBEB"/>
<path d="M151.879 72.583H146.629V77.833H151.879V72.583Z" fill="#EBEBEB"/>
<path d="M150.57 114.562V109.312H145.32V104.069H140.07V109.312V114.562H134.827V119.805H140.07H145.32V114.562H150.57Z" fill="#EBEBEB"/>
<path d="M180.187 104.069H174.937V109.319H180.187V104.069Z" fill="#EBEBEB"/>
<path d="M125.797 130.305H120.547V135.555H125.797V130.305Z" fill="#EBEBEB"/>
<path d="M146.629 98.819V93.569H151.879V88.326H157.129H162.372V83.076H157.129V77.833H151.879V83.076H146.629V88.326H141.386V93.569H136.136V98.819H141.386H146.629Z" fill="#EBEBEB"/>
<path d="M146.629 135.548V130.305H151.879V125.055H146.629H141.386V130.305H136.136V135.548H141.386H146.629Z" fill="#EBEBEB"/>
<path d="M162.372 156.534V151.291H157.129H151.879V146.041H146.629V151.291H141.386V156.534H136.136H130.893V161.784H136.136H141.386H146.629V156.534H151.879V161.784H157.129V156.534H162.372Z" fill="#EBEBEB"/>
<path d="M141.386 77.833V72.583H136.136H130.893V77.833H125.643V83.076H130.893H136.136V77.833H141.386Z" fill="#EBEBEB"/>
<path d="M141.386 83.076H136.136V88.326H141.386V83.076Z" fill="#EBEBEB"/>
<path d="M154.504 104.069H149.254V109.312V114.562V119.805H154.504H159.754V114.562H154.504V109.312H159.754V104.069H164.997V98.819H159.754V93.569H154.504V98.819V104.069Z" fill="#EBEBEB"/>
<path d="M136.143 88.326H130.893V93.576H136.143V88.326Z" fill="#EBEBEB"/>
<path d="M151.879 140.798V146.041H157.129H162.372V140.798H167.622H172.872V135.548H167.622H162.372H157.129V140.798H151.879Z" fill="#EBEBEB"/>
<path d="M180.187 119.805H174.937V125.055H180.187V119.805Z" fill="#EBEBEB"/>
<path d="M162.379 125.055H157.129V130.305H162.379V125.055Z" fill="#EBEBEB"/>
<path d="M175.49 109.312H170.247H164.997V114.562H170.247V119.805H175.49V114.562V109.312Z" fill="#EBEBEB"/>
<path d="M172.872 125.055H167.622V130.305H172.872V125.055Z" fill="#EBEBEB"/>
<path d="M115.15 156.639H130.9V135.541H109.802V140.798H104.657V146.041H109.802V151.291H104.657V156.541H109.802V156.639H109.9V161.784H104.657V172.284H109.9V167.034H115.15V156.639ZM126.854 139.587V152.705H113.736V139.587H126.854Z" fill="#EBEBEB"/>
<path d="M183.365 135.548H188.608V130.305H183.365H178.115H172.872V135.548H178.115H183.365Z" fill="#EBEBEB"/>
<path d="M183.365 114.562H188.608V109.312V104.069H183.365V109.312V114.562Z" fill="#EBEBEB"/>
<path d="M141.582 141.001H136.332V146.251V151.494H141.582V146.251V141.001Z" fill="#EBEBEB"/>
<path d="M193.858 135.548H188.608V140.798H193.858V135.548Z" fill="#EBEBEB"/>
<path d="M193.858 125.055V119.805H188.608V125.055V130.305H193.858V125.055Z" fill="#EBEBEB"/>
<path d="M99.407 161.784H94.157V167.034V172.284H99.407V167.034V161.784Z" fill="#EBEBEB"/>
<path d="M193.858 98.819V72.583H167.622V98.819H193.858ZM171.556 94.885V76.517H189.924V94.885H171.556Z" fill="#EBEBEB"/>
<path d="M185.983 80.451H175.49V90.944H185.983V80.451Z" fill="#EBEBEB"/>
<path d="M193.858 146.041H167.622V172.284H193.858V146.041ZM171.556 168.343V149.982H189.924V168.343H171.556Z" fill="#EBEBEB"/>
<path d="M185.983 153.916H175.49V164.409H185.983V153.916Z" fill="#EBEBEB"/>
<path d="M94.094 72.583V98.819H120.33V72.583H94.094ZM116.396 76.517V94.885H98V76.517H116.396Z" fill="#EBEBEB"/>
<path d="M112.455 80.451H101.962V90.944H112.455V80.451Z" fill="#EBEBEB"/>
<path d="M52.1483 175.944C52.4866 174.614 51.6826 173.262 50.3525 172.923C49.0224 172.585 47.6699 173.389 47.3317 174.719C46.9934 176.049 47.7974 177.402 49.1274 177.74C50.4575 178.078 51.81 177.274 52.1483 175.944Z" fill="#EBEBEB"/>
<path d="M44.8 172.158C45.4341 171.476 46.1999 170.93 47.051 170.552C47.9021 170.175 48.821 169.974 49.7521 169.961C50.6831 169.949 51.607 170.125 52.4679 170.48C53.3289 170.835 54.1089 171.36 54.761 172.025C56.028 173.306 58.009 171.325 56.742 170.058C55.8299 169.137 54.7426 168.407 53.5441 167.913C52.3456 167.419 51.0603 167.169 49.7639 167.18C48.4675 167.19 47.1863 167.46 45.9959 167.974C44.8056 168.487 43.7301 169.234 42.833 170.17C41.594 171.472 43.533 173.46 44.8 172.158Z" fill="#EBEBEB"/>
<path d="M36.344 160.594C40.117 157.332 44.625 155.274 49.644 155.26C54.6755 155.2 59.5401 157.063 63.245 160.468C64.554 161.7 66.542 159.733 65.233 158.501C61.0078 154.593 55.4555 152.436 49.7 152.467C43.89 152.467 38.724 154.854 34.384 158.613C32.984 159.789 34.993 161.763 36.351 160.594H36.344Z" fill="#EBEBEB"/>
<path d="M39.669 166.999C40.9291 165.595 42.4662 164.467 44.1836 163.686C45.9009 162.905 47.7613 162.488 49.6477 162.461C51.5341 162.434 53.4056 162.798 55.1446 163.529C56.8835 164.261 58.4523 165.345 59.752 166.712C61.012 168.007 62.993 166.012 61.74 164.752C60.1824 163.123 58.3067 161.831 56.2293 160.957C54.1519 160.083 51.917 159.644 49.6633 159.669C47.4095 159.694 45.1849 160.182 43.1274 161.102C41.0698 162.022 39.2232 163.355 37.702 165.018C36.484 166.334 38.444 168.322 39.669 166.999Z" fill="#EBEBEB"/>
<path d="M159.67 39.501C160.09 36.435 155.757 33.901 152.502 33.642C150.948 33.516 149.338 33.754 147.868 33.243C144.676 32.13 143.402 28.014 140.294 26.705C137.97 25.725 135.289 26.593 133.035 27.727C130.781 28.861 128.555 30.289 126.035 30.45C123.844 30.59 121.464 29.75 119.546 30.849C118.146 31.647 117.369 33.292 116.046 34.265C114.723 35.238 113.078 35.42 111.482 35.504C109.886 35.588 108.227 35.609 106.778 36.274C105.329 36.939 104.118 38.479 104.419 40.047L159.67 39.501Z" fill="#EBEBEB"/>
<path d="M76.048 91.385C76.426 88.634 72.548 86.366 69.622 86.135C68.222 86.023 66.822 86.233 65.464 85.771C62.608 84.777 61.467 81.088 58.681 79.912C56.581 79.03 54.194 79.814 52.178 80.829C50.162 81.844 48.16 83.125 45.878 83.272C43.911 83.398 41.783 82.67 40.061 83.629C38.78 84.329 38.115 85.82 36.932 86.688C35.749 87.556 34.272 87.717 32.837 87.801C31.4058 87.773 29.9818 88.0104 28.637 88.501C27.335 89.096 26.257 90.482 26.537 91.889L76.048 91.385Z" fill="#F5F5F5"/>
<path d="M338.366 89.439C338.772 86.492 334.614 84.063 331.485 83.839C329.994 83.72 328.447 83.951 327.033 83.454C323.974 82.39 322.749 78.435 319.767 77.154C317.534 76.216 314.965 77.049 312.802 78.141C310.639 79.233 308.497 80.598 306.082 80.759C303.982 80.892 301.693 80.108 299.852 81.137C298.452 81.9 297.752 83.482 296.499 84.413C295.246 85.344 293.65 85.519 292.117 85.603C290.584 85.687 288.995 85.701 287.602 86.345C286.209 86.989 285.047 88.445 285.341 89.964L338.366 89.439Z" fill="#F5F5F5"/>
<path d="M332.122 333.942C332.122 334.04 261.772 334.124 175.007 334.124C88.242 334.124 17.878 334.04 17.878 333.942C17.878 333.844 88.2 333.76 175 333.76C261.8 333.76 332.122 333.837 332.122 333.942Z" fill="#263238"/>
<path d="M294.49 303.149C295.18 303.479 295.797 303.945 296.303 304.519C296.81 305.092 297.195 305.762 297.437 306.488C297.913 307.948 298.047 309.497 297.829 311.017C297.5 313.957 295.827 316.925 294.028 319.27C291.557 317.114 290.983 313.341 290.815 311.416C290.549 308.364 291.921 302.694 294.49 303.149Z" fill="#150A87"/>
<path d="M296.905 324.1C296.74 323.26 296.798 322.392 297.073 321.581C297.348 320.77 297.831 320.046 298.473 319.48C299.129 318.93 299.887 318.515 300.704 318.26C301.521 318.006 302.381 317.916 303.233 317.996C303.63 317.988 304.025 318.068 304.388 318.23C304.751 318.393 305.074 318.633 305.333 318.934C305.517 319.253 305.614 319.615 305.614 319.984C305.614 320.353 305.517 320.715 305.333 321.034C304.957 321.674 304.419 322.203 303.772 322.567C301.63 323.911 299.306 324.821 296.884 324.093" fill="#150A87"/>
<path d="M293.734 333.13C293.747 332.928 293.775 332.726 293.818 332.528C293.902 332.101 294 331.555 294.119 330.897C294.395 329.079 294.964 327.317 295.806 325.682C296.678 324.049 297.968 322.677 299.544 321.706C300.023 321.413 300.535 321.178 301.07 321.006C301.215 320.96 301.362 320.922 301.511 320.894C301.562 320.885 301.614 320.885 301.665 320.894C300.954 321.137 300.269 321.452 299.621 321.832C298.095 322.818 296.844 324.177 295.988 325.78C295.165 327.399 294.585 329.13 294.266 330.918C294.119 331.618 294 332.157 293.902 332.535C293.868 332.739 293.812 332.938 293.734 333.13Z" fill="#263238"/>
<path d="M293.825 307.559C293.837 307.647 293.837 307.737 293.825 307.825C293.825 308.021 293.825 308.266 293.874 308.581C293.909 309.239 293.944 310.191 293.986 311.381C294.063 313.733 294.119 316.981 294.105 320.586C294.091 324.191 294 327.439 293.902 329.791C293.86 330.967 293.811 331.891 293.769 332.591C293.769 332.899 293.769 333.151 293.72 333.347C293.719 333.437 293.707 333.526 293.685 333.613C293.674 333.525 293.674 333.435 293.685 333.347C293.685 333.151 293.685 332.899 293.685 332.584C293.685 331.884 293.727 330.953 293.755 329.784C293.811 327.432 293.874 324.184 293.888 320.586C293.902 316.988 293.888 313.74 293.832 311.388C293.832 310.226 293.797 309.288 293.79 308.588C293.79 308.28 293.79 308.028 293.79 307.832C293.79 307.74 293.802 307.648 293.825 307.559Z" fill="#263238"/>
<path d="M292.6 325.913C292.3 324.131 291.581 322.447 290.501 320.998C289.422 319.55 288.013 318.379 286.391 317.583C285.565 317.191 284.487 316.932 283.801 317.548C283.115 318.164 283.276 319.263 283.612 320.124C284.343 321.907 285.588 323.433 287.188 324.506C288.789 325.579 290.673 326.152 292.6 326.151" fill="#150A87"/>
<path d="M286.818 320.369C287 320.428 287.176 320.505 287.343 320.6C287.548 320.692 287.747 320.797 287.938 320.915C288.198 321.06 288.45 321.219 288.694 321.391C288.994 321.591 289.281 321.808 289.555 322.042C289.879 322.302 290.187 322.58 290.479 322.875C291.144 323.555 291.729 324.309 292.222 325.122C292.708 325.942 293.095 326.816 293.377 327.726C293.592 328.472 293.74 329.236 293.818 330.008C293.86 330.337 293.818 330.638 293.86 330.897C293.873 331.13 293.873 331.364 293.86 331.597C293.857 331.788 293.836 331.977 293.797 332.164C293.748 332.164 293.832 331.352 293.685 330.064C293.643 329.742 293.601 329.364 293.517 329.007C293.433 328.65 293.328 328.237 293.209 327.824C292.923 326.934 292.538 326.08 292.061 325.276C291.576 324.477 291.005 323.733 290.36 323.057C290.076 322.762 289.777 322.482 289.464 322.217C289.197 321.982 288.916 321.762 288.624 321.559C287.546 320.754 286.797 320.411 286.818 320.369Z" fill="#263238"/>
<path d="M106.442 333.949C106.236 333.296 106.074 332.629 105.959 331.954C105.235 328.758 104.152 325.654 102.732 322.7C102.407 322.097 102.117 321.475 101.864 320.838C102.295 321.374 102.662 321.959 102.956 322.581C104.524 325.509 105.622 328.665 106.211 331.933C106.36 332.595 106.437 333.271 106.442 333.949Z" fill="#263238"/>
<path d="M112.651 303.653C112.62 304.053 112.562 304.451 112.476 304.843C112.336 305.599 112.147 306.698 111.93 308.056C111.482 310.779 110.964 314.545 110.642 318.731C110.32 322.917 110.264 326.732 110.285 329.483C110.285 330.883 110.285 331.975 110.341 332.745C110.371 333.143 110.371 333.544 110.341 333.942C110.264 333.55 110.219 333.152 110.208 332.752C110.145 331.982 110.082 330.869 110.04 329.49C109.926 325.893 110.008 322.292 110.285 318.703C110.561 315.118 111.028 311.55 111.685 308.014C111.944 306.656 112.168 305.564 112.35 304.815C112.421 304.421 112.521 304.032 112.651 303.653Z" fill="#263238"/>
<path d="M122.619 321.09C122.259 321.677 121.869 322.244 121.45 322.791C120.528 324.158 119.727 325.603 119.056 327.11C118.399 328.623 117.881 330.193 117.509 331.8C117.388 332.477 117.231 333.148 117.04 333.809C117.028 333.114 117.101 332.421 117.257 331.744C117.87 328.446 119.233 325.332 121.24 322.644C121.63 322.068 122.094 321.546 122.619 321.09Z" fill="#263238"/>
<path d="M244.657 323.4C245.018 323.829 245.328 324.299 245.581 324.8C246.099 325.689 246.771 326.949 247.436 328.37C248.101 329.791 248.633 331.128 248.983 332.094C249.208 332.606 249.368 333.145 249.459 333.697C249.177 333.219 248.943 332.715 248.759 332.192C248.353 331.247 247.786 329.945 247.121 328.524C246.456 327.103 245.826 325.836 245.364 324.919C245.074 324.44 244.837 323.931 244.657 323.4Z" fill="#263238"/>
<path d="M257.537 310.618C257.506 310.927 257.445 311.231 257.355 311.528C257.208 312.179 257.019 312.998 256.788 313.978C256.326 316.078 255.759 318.92 255.332 322.126C254.905 325.332 254.709 328.265 254.632 330.379C254.597 331.387 254.569 332.227 254.548 332.892C254.558 333.202 254.535 333.511 254.478 333.816C254.425 333.511 254.399 333.202 254.401 332.892C254.401 332.297 254.366 331.436 254.401 330.372C254.444 327.6 254.647 324.833 255.01 322.084C255.372 319.333 255.896 316.605 256.578 313.915C256.844 312.886 257.082 312.06 257.278 311.493C257.331 311.192 257.417 310.899 257.537 310.618Z" fill="#263238"/>
<path d="M164.36 316.316C164.594 316.449 164.808 316.614 164.997 316.806C165.549 317.281 166.075 317.786 166.572 318.318C169.886 321.84 172.228 326.162 173.369 330.862C173.548 331.569 173.683 332.287 173.775 333.011C173.828 333.274 173.852 333.541 173.845 333.809C173.782 333.809 173.607 332.689 173.145 330.932C171.87 326.326 169.556 322.073 166.383 318.5C165.2 317.1 164.318 316.4 164.36 316.316Z" fill="#263238"/>
<path d="M176.491 308.868C176.521 309.199 176.521 309.531 176.491 309.862C176.491 310.562 176.491 311.479 176.491 312.564C176.491 314.846 176.582 317.996 176.883 321.468C177.184 324.94 177.646 328.055 178.038 330.302C178.227 331.373 178.388 332.269 178.514 332.962C178.593 333.286 178.64 333.616 178.654 333.949C178.536 333.637 178.442 333.316 178.374 332.99C178.213 332.374 178.01 331.471 177.786 330.351C176.617 324.497 176.096 318.532 176.232 312.564C176.232 311.416 176.302 310.464 176.358 309.855C176.369 309.522 176.414 309.192 176.491 308.868Z" fill="#263238"/>
<path d="M187.201 323.708C187.306 323.764 186.102 325.864 185.276 328.706C184.45 331.548 184.296 333.956 184.184 333.949C184.105 333.422 184.105 332.887 184.184 332.36C184.294 331.087 184.529 329.828 184.884 328.601C185.237 327.376 185.706 326.188 186.284 325.052C186.526 324.564 186.835 324.112 187.201 323.708Z" fill="#263238"/>
<path d="M44.044 267.344H35.917V331.863H44.044V267.344Z" fill="#455A64"/>
<path d="M44.051 331.856C44.051 331.856 44.051 331.744 44.051 331.52V330.554C44.051 329.693 44.051 328.454 44.051 326.844C44.051 323.617 44.051 318.955 43.995 313.166C43.995 301.581 43.946 285.481 43.918 267.344L44.1 267.526H35.917L36.099 267.344C36.057 295.603 36.022 320.075 36.001 331.856L35.917 331.779L41.944 331.821H43.512H44.051C44.051 331.821 43.883 331.821 43.54 331.821H41.993L35.917 331.863H35.84V331.779C35.84 319.998 35.784 295.526 35.735 267.267L35.917 267.085H44.233V267.267C44.233 285.467 44.17 301.602 44.156 313.222C44.156 318.99 44.114 323.638 44.1 326.858C44.1 328.44 44.1 329.658 44.1 330.526V331.471C44.058 331.758 44.051 331.856 44.051 331.856Z" fill="#263238"/>
<g opacity="0.3">
<path d="M44.044 268.912H35.917V271.6H44.044V268.912Z" fill="black"/>
</g>
<path d="M216.951 267.344H208.824V331.863H216.951V267.344Z" fill="#455A64"/>
<path d="M216.951 331.856C216.951 331.856 216.951 331.744 216.951 331.52V330.554C216.951 329.693 216.951 328.454 216.951 326.844C216.951 323.617 216.951 318.955 216.895 313.166C216.895 301.581 216.853 285.481 216.818 267.344L217 267.526H208.824L209.006 267.344C208.957 295.603 208.922 320.075 208.901 331.856L208.824 331.779L214.851 331.821H216.412H216.951C216.951 331.821 216.783 331.821 216.44 331.821H214.9L208.824 331.863H208.74V331.779C208.74 319.998 208.684 295.526 208.642 267.267L208.824 267.085H217.133V267.267C217.133 285.467 217.077 301.602 217.056 313.222C217.056 318.99 217.014 323.638 217 326.858C217 328.44 217 329.658 217 330.526V331.471C216.958 331.758 216.951 331.856 216.951 331.856Z" fill="#263238"/>
<path d="M204.211 210.826H196.084V264.607H204.211V210.826Z" fill="#455A64"/>
<path d="M204.218 264.6C204.208 264.505 204.208 264.408 204.218 264.313V263.508C204.218 262.808 204.218 261.751 204.218 260.428C204.218 257.733 204.183 253.862 204.162 249.039C204.162 239.393 204.113 225.981 204.085 210.819L204.267 211.001H196.091C196.448 210.637 196.189 210.91 196.266 210.833V219.366C196.266 222.166 196.266 224.889 196.266 227.549C196.266 232.869 196.266 237.895 196.266 242.522C196.231 251.762 196.21 259.399 196.196 264.6L196.105 264.509L202.118 264.558H203.693H204.239H203.721H202.174L196.105 264.607H196V264.6C196 259.399 195.965 251.762 195.937 242.522C195.937 237.895 195.937 232.869 195.937 227.549C195.937 224.889 195.937 222.161 195.937 219.366V210.84C196.021 210.756 195.755 211.008 196.126 210.644H204.4V210.826C204.4 226.037 204.344 239.526 204.323 249.179C204.323 253.981 204.281 257.838 204.274 260.519C204.274 261.828 204.274 262.85 204.274 263.564C204.274 263.893 204.274 264.159 204.274 264.348C204.274 264.537 204.218 264.6 204.218 264.6Z" fill="#263238"/>
<path d="M59.605 210.826H51.478V264.607H59.605V210.826Z" fill="#455A64"/>
<path d="M59.612 264.6C59.6063 264.504 59.6063 264.409 59.612 264.313C59.612 264.117 59.612 263.851 59.612 263.508C59.612 262.808 59.612 261.751 59.612 260.428C59.612 257.733 59.612 253.862 59.556 249.039C59.556 239.393 59.507 225.981 59.479 210.819L59.661 211.001H51.485C51.842 210.637 51.583 210.91 51.66 210.833V219.366C51.66 222.166 51.66 224.894 51.66 227.549C51.66 232.869 51.66 237.895 51.66 242.522C51.66 251.762 51.604 259.399 51.59 264.6L51.499 264.509L57.512 264.558H59.087H59.633H59.115H57.568L51.499 264.607H51.415V264.6C51.415 259.399 51.373 251.762 51.345 242.522C51.345 237.895 51.345 232.869 51.345 227.549C51.345 224.889 51.345 222.161 51.345 219.366V210.84C51.429 210.756 51.163 211.008 51.534 210.644H59.794V210.826C59.794 226.037 59.731 239.526 59.71 249.179C59.71 253.981 59.71 257.838 59.661 260.519C59.661 261.828 59.661 262.85 59.661 263.564C59.661 263.893 59.661 264.159 59.661 264.348C59.661 264.537 59.612 264.6 59.612 264.6Z" fill="#263238"/>
<path d="M219.898 204.687H35.441V213.297H219.898V204.687Z" fill="#455A64"/>
<path d="M219.898 213.297C219.898 213.297 219.898 213.122 219.898 212.772C219.898 212.422 219.898 211.897 219.898 211.19C219.898 209.79 219.898 207.627 219.898 204.687L219.947 204.743L35.497 204.869L35.679 204.687V213.297L35.497 213.115L166.187 213.192L205.534 213.248H216.216H219.016H219.968H219.037H216.279H205.646L166.341 213.304L35.441 213.5H35.259V204.505H35.448L219.898 204.638H219.954V204.687C219.954 207.641 219.954 209.797 219.954 211.218C219.954 211.918 219.954 212.443 219.954 212.793C219.954 213.143 219.898 213.297 219.898 213.297Z" fill="#263238"/>
<path d="M220.374 217.602H35.917V226.212H220.374V217.602Z" fill="#455A64"/>
<path d="M220.374 226.212C220.374 226.212 220.374 226.037 220.374 225.687C220.374 225.337 220.374 224.812 220.374 224.105C220.374 222.705 220.374 220.542 220.374 217.602L220.423 217.651L35.98 217.784L36.162 217.602V226.212L35.98 226.03L166.6 226.1L205.947 226.149H216.629H219.429H220.381H219.457H216.699H206.059L166.754 226.205L35.924 226.282H35.742V217.42H35.938L220.381 217.553H220.437V217.602C220.437 220.556 220.437 222.712 220.437 224.133C220.437 224.833 220.437 225.351 220.437 225.701C220.437 226.051 220.374 226.212 220.374 226.212Z" fill="#263238"/>
<path d="M220.374 230.993H35.917V239.603H220.374V230.993Z" fill="#455A64"/>
<path d="M220.374 239.603C220.374 239.603 220.374 239.428 220.374 239.078C220.374 238.728 220.374 238.203 220.374 237.496C220.374 236.096 220.374 233.933 220.374 230.993L220.423 231.042L35.98 231.175L36.162 230.993V239.603L35.98 239.421L166.677 239.498L206.024 239.554H216.706H219.506H220.458H219.534H216.776H206.136L166.831 239.61L36.001 239.687H35.819V230.811H36.015L220.458 230.944H220.514V231C220.514 233.954 220.514 236.11 220.514 237.531C220.514 238.231 220.514 238.749 220.514 239.106C220.514 239.463 220.374 239.603 220.374 239.603Z" fill="#263238"/>
<path d="M220.374 244.384H35.917V252.994H220.374V244.384Z" fill="#455A64"/>
<path d="M220.374 252.994C220.374 252.994 220.374 252.819 220.374 252.469C220.374 252.119 220.374 251.594 220.374 250.887C220.374 249.487 220.374 247.324 220.374 244.384L220.423 244.44L35.98 244.566L36.162 244.384V252.994L35.98 252.812L166.677 252.889L206.024 252.945H216.706H219.506H220.458H219.534H216.776H206.136L166.831 253.001L36.001 253.078H35.819V244.202H36.015L220.458 244.335H220.514V244.384C220.514 247.338 220.514 249.494 220.514 250.915C220.514 251.615 220.514 252.14 220.514 252.49C220.514 252.84 220.374 252.994 220.374 252.994Z" fill="#263238"/>
<path d="M223.734 260.302H27.909V268.912H223.734V260.302Z" fill="#455A64"/>
<path d="M223.734 268.912C223.734 268.912 223.734 268.737 223.734 268.387C223.734 268.037 223.734 267.512 223.734 266.805C223.734 265.405 223.734 263.242 223.734 260.302L223.79 260.351L27.972 260.484L28.154 260.302V268.912L27.972 268.73L166.698 268.8L208.481 268.856H219.828H222.782C223.447 268.856 223.797 268.856 223.797 268.856H222.803H219.8H208.495L166.761 268.912L27.895 268.989H27.713V260.12H27.902L223.72 260.253H223.769V260.302C223.769 263.256 223.769 265.412 223.769 266.833C223.769 267.533 223.769 268.051 223.769 268.401C223.769 268.751 223.734 268.912 223.734 268.912Z" fill="#263238"/>
<g opacity="0.3">
<path d="M216.951 268.912H208.824V271.6H216.951V268.912Z" fill="black"/>
</g>
<path d="M117.817 161.224L116.06 172.557L111.538 182.875L104.839 178.598L102.452 172.578L100.457 167.524C100.457 167.524 93.38 169.232 90.559 162.624C89.201 159.432 86.933 152.628 84.959 146.44C83.934 143.228 84.1573 139.748 85.5845 136.694C87.0117 133.64 89.5378 131.236 92.659 129.962L93.296 129.696C100.387 127.253 106.421 131.908 108.661 139.055L117.859 161.238" fill="#A2675F"/>
<path d="M100.45 167.524C103.544 166.318 106.207 164.217 108.101 161.49C108.101 161.49 108.024 167.125 101.143 169.253L100.45 167.524Z" fill="#7A4A45"/>
<path d="M89.278 151.501C89.3765 151.75 89.5689 151.95 89.8137 152.059C90.0585 152.168 90.3362 152.176 90.587 152.082C90.7117 152.042 90.8271 151.977 90.9264 151.891C91.0256 151.806 91.1067 151.701 91.1647 151.584C91.2228 151.466 91.2568 151.338 91.2645 151.207C91.2723 151.077 91.2538 150.946 91.21 150.822C91.1115 150.573 90.9191 150.372 90.6743 150.264C90.4295 150.155 90.1518 150.147 89.901 150.241C89.7763 150.281 89.6609 150.346 89.5616 150.432C89.4624 150.517 89.3813 150.622 89.3233 150.739C89.2652 150.857 89.2312 150.985 89.2235 151.116C89.2157 151.246 89.2342 151.377 89.278 151.501Z" fill="#263238"/>
<path d="M87.5 148.778C87.668 148.855 88.2 148.029 89.194 147.609C90.188 147.189 91.175 147.392 91.231 147.224C91.287 147.056 91.049 146.972 90.629 146.867C90.0527 146.732 89.4488 146.778 88.9 147C88.3681 147.219 87.9196 147.602 87.619 148.092C87.409 148.477 87.395 148.75 87.5 148.778Z" fill="#263238"/>
<path d="M98.189 147.525C98.2875 147.774 98.4799 147.974 98.7247 148.083C98.9695 148.192 99.2472 148.2 99.498 148.106C99.6234 148.066 99.7395 148.002 99.8395 147.917C99.9395 147.832 100.021 147.727 100.08 147.61C100.139 147.492 100.173 147.364 100.182 147.233C100.19 147.101 100.172 146.97 100.128 146.846C100.028 146.598 99.8355 146.399 99.5912 146.29C99.3468 146.182 99.0699 146.173 98.819 146.265C98.6936 146.304 98.5775 146.369 98.4775 146.454C98.3775 146.539 98.2957 146.644 98.2369 146.761C98.1781 146.879 98.1436 147.007 98.1354 147.138C98.1271 147.27 98.1454 147.401 98.189 147.525Z" fill="#263238"/>
<path d="M97.545 144.305C97.706 144.396 98.294 143.605 99.351 143.318C100.408 143.031 101.346 143.318 101.451 143.157C101.556 142.996 101.304 142.891 100.891 142.737C100.335 142.565 99.7393 142.565 99.183 142.737C98.6284 142.897 98.1384 143.227 97.783 143.682C97.51 143.997 97.468 144.263 97.545 144.305Z" fill="#263238"/>
<path d="M97.251 154.252C96.6442 154.303 96.0466 154.433 95.473 154.637C95.2 154.714 94.934 154.763 94.815 154.637C94.6798 154.379 94.6285 154.085 94.668 153.797C94.668 153.064 94.654 152.294 94.626 151.487C94.528 148.218 94.346 145.572 94.22 145.579C94.094 145.586 94.052 148.239 94.15 151.508C94.15 152.313 94.206 153.076 94.227 153.811C94.1954 154.193 94.2968 154.574 94.514 154.889C94.5891 154.967 94.6813 155.027 94.7833 155.063C94.8853 155.1 94.9944 155.112 95.102 155.099C95.2631 155.077 95.4207 155.035 95.571 154.973C96.1584 154.802 96.7226 154.56 97.251 154.252Z" fill="#263238"/>
<path d="M95.585 139.951C95.802 140.189 96.768 139.636 98.028 139.251C99.288 138.866 100.394 138.831 100.45 138.551C100.45 138.404 100.191 138.208 99.694 138.103C99.0365 137.988 98.3613 138.023 97.7197 138.208C97.0781 138.392 96.4869 138.72 95.991 139.167C95.62 139.524 95.487 139.839 95.585 139.951Z" fill="#263238"/>
<path d="M86.016 144.76C86.296 144.914 86.898 144.389 87.738 144.025C88.578 143.661 89.369 143.542 89.432 143.227C89.432 143.08 89.25 142.898 88.844 142.807C88.3161 142.704 87.7691 142.773 87.283 143.003C86.7875 143.215 86.3712 143.577 86.093 144.039C85.89 144.396 85.89 144.676 86.016 144.76Z" fill="#263238"/>
<path d="M110.103 144.2C110.201 144.109 114.121 140.973 115.843 145.6C117.565 150.227 112.588 150.99 112.532 150.857C112.476 150.724 110.103 144.2 110.103 144.2Z" fill="#A2675F"/>
<path d="M113.288 148.554C113.288 148.554 113.386 148.554 113.547 148.589C113.767 148.596 113.981 148.521 114.149 148.379C114.373 148.083 114.514 147.732 114.559 147.363C114.603 146.994 114.549 146.62 114.401 146.279C114.265 145.879 114.04 145.516 113.743 145.215C113.647 145.086 113.521 144.983 113.376 144.914C113.23 144.846 113.07 144.815 112.91 144.823C112.808 144.833 112.713 144.878 112.641 144.951C112.569 145.024 112.526 145.12 112.518 145.222C112.518 145.376 112.567 145.453 112.518 145.474C112.469 145.495 112.392 145.432 112.357 145.229C112.341 145.105 112.368 144.979 112.434 144.872C112.524 144.727 112.667 144.624 112.833 144.585C113.036 144.553 113.244 144.572 113.437 144.642C113.631 144.712 113.803 144.83 113.939 144.984C114.282 145.312 114.541 145.718 114.695 146.167C115.017 147.105 114.863 148.155 114.268 148.596C114.158 148.678 114.031 148.734 113.897 148.761C113.762 148.787 113.624 148.784 113.491 148.75C113.337 148.659 113.274 148.568 113.288 148.554Z" fill="#7A4A45"/>
<path d="M81.025 138.971C80.9169 138.493 80.9521 137.993 81.1265 137.535C81.3008 137.077 81.6064 136.68 82.005 136.395C81.6374 136.045 81.3999 135.581 81.3315 135.078C81.2631 134.576 81.3679 134.064 81.6287 133.629C81.8895 133.194 82.2907 132.861 82.7662 132.684C83.2418 132.507 83.7633 132.498 84.245 132.657C84.1194 132.314 84.0772 131.946 84.1219 131.583C84.1666 131.221 84.2969 130.874 84.502 130.572C84.7072 130.27 84.9813 130.02 85.3018 129.845C85.6222 129.67 85.9798 129.573 86.345 129.563C86.1544 129.167 86.1037 128.719 86.2013 128.291C86.2988 127.863 86.5387 127.48 86.8819 127.206C87.225 126.932 87.6509 126.783 88.09 126.782C88.5291 126.782 88.9554 126.931 89.299 127.204C89.4004 126.713 89.6109 126.25 89.9151 125.851C90.2193 125.452 90.6094 125.127 91.0563 124.899C91.5033 124.671 91.9958 124.547 92.4974 124.535C92.999 124.523 93.4968 124.624 93.954 124.831C94.7513 124.157 95.7683 123.799 96.8121 123.824C97.8559 123.85 98.854 124.258 99.617 124.971C100.384 124.718 101.208 124.699 101.986 124.916C102.764 125.133 103.46 125.576 103.985 126.189C104.481 126.03 105.01 126.005 105.518 126.116C106.027 126.227 106.497 126.47 106.882 126.821C107.267 127.171 107.552 127.617 107.71 128.113C107.867 128.61 107.891 129.139 107.779 129.647C108.115 129.692 108.436 129.813 108.717 130.002C108.998 130.191 109.232 130.442 109.401 130.735C109.57 131.029 109.668 131.358 109.689 131.696C109.71 132.034 109.653 132.373 109.522 132.685C109.927 132.717 110.315 132.863 110.64 133.106C110.966 133.349 111.216 133.679 111.362 134.058C111.509 134.437 111.545 134.849 111.467 135.248C111.389 135.646 111.2 136.015 110.922 136.311C111.622 136.115 112.259 136.892 112.322 137.62C112.29 138.347 112.22 139.071 112.112 139.79C112.112 140.392 112.273 140.98 112.301 141.582C112.323 142.147 112.222 142.711 112.005 143.233C111.787 143.755 111.458 144.224 111.041 144.606L111.216 144.697C111.573 145.229 110.929 145.964 110.285 145.957C109.645 145.864 109.047 145.581 108.57 145.145C107.939 144.768 107.37 144.296 106.883 143.745C106.645 143.463 106.505 143.11 106.485 142.742C106.465 142.373 106.565 142.008 106.771 141.701C106.322 141.7 105.882 141.581 105.494 141.356C105.106 141.131 104.783 140.808 104.559 140.42C104.117 139.64 103.821 138.786 103.684 137.9L102.844 134.029C102.005 134.339 101.097 134.414 100.218 134.245C99.3396 134.076 98.524 133.67 97.86 133.07C97.645 133.405 97.361 133.69 97.0271 133.906C96.6932 134.123 96.3169 134.266 95.9235 134.325C95.53 134.385 95.1284 134.36 94.7453 134.252C94.3623 134.144 94.0066 133.956 93.702 133.7C93.7412 134.626 93.4267 135.533 92.8223 136.236C92.2179 136.939 91.3688 137.387 90.447 137.487C91.014 138.355 89.684 139.923 88.858 140.553C88.1786 140.946 87.3896 141.105 86.611 141.008C86.611 141.008 85.407 142.604 84.392 142.618C83.377 142.632 81.788 142.002 81.984 140.875C81.5187 140.325 81.1901 139.672 81.025 138.971Z" fill="#263238"/>
<path d="M109.76 132.573C109.749 132.844 109.677 133.11 109.55 133.35C109.475 133.472 109.373 133.574 109.251 133.649C109.13 133.725 108.992 133.771 108.85 133.784C108.676 133.805 108.499 133.778 108.339 133.706C108.179 133.635 108.041 133.521 107.94 133.378L107.772 133.126L107.639 133.399C107.523 133.608 107.354 133.783 107.149 133.906C106.943 134.029 106.709 134.096 106.47 134.099C106.2 134.087 105.94 133.992 105.725 133.828C105.51 133.665 105.35 133.439 105.266 133.182L105.189 132.902L104.986 133.105C104.864 133.225 104.72 133.319 104.561 133.383C104.402 133.447 104.233 133.478 104.062 133.476C103.786 133.474 103.519 133.384 103.299 133.217C102.921 132.93 102.837 132.629 102.795 132.643C102.753 132.657 102.795 132.993 103.166 133.343C103.407 133.57 103.718 133.708 104.048 133.735C104.262 133.749 104.476 133.72 104.678 133.649C104.881 133.578 105.066 133.467 105.224 133.322L104.937 133.245C105.023 133.565 105.205 133.85 105.458 134.063C105.712 134.276 106.025 134.405 106.355 134.433C106.684 134.461 107.015 134.387 107.301 134.221C107.587 134.055 107.815 133.804 107.954 133.504H107.653C107.792 133.695 107.982 133.843 108.201 133.932C108.42 134.021 108.659 134.047 108.892 134.008C109.069 133.975 109.237 133.902 109.381 133.794C109.526 133.686 109.643 133.546 109.725 133.385C109.991 132.902 109.781 132.545 109.76 132.573Z" fill="#455A64"/>
<path d="M112.238 136.647C112.203 136.647 112.133 136.843 111.832 137.039C111.634 137.175 111.4 137.248 111.16 137.248C110.92 137.248 110.686 137.175 110.488 137.039L110.334 136.913L110.264 137.102C110.177 137.312 110.037 137.497 109.858 137.638C109.679 137.779 109.467 137.872 109.242 137.907C108.982 137.935 108.719 137.883 108.489 137.758C108.259 137.633 108.072 137.441 107.954 137.207L107.814 136.913L107.632 137.179C107.585 137.248 107.529 137.309 107.464 137.361C107.319 137.481 107.139 137.553 106.951 137.567C106.763 137.581 106.575 137.536 106.414 137.438C106.271 137.34 106.158 137.204 106.086 137.046C106.015 136.889 105.988 136.714 106.008 136.542L106.057 136.192L105.756 136.374C105.411 136.579 104.999 136.642 104.608 136.549C104.296 136.479 104.016 136.31 103.81 136.066C103.636 135.835 103.49 135.583 103.376 135.317C103.359 135.474 103.376 135.633 103.424 135.784C103.472 135.935 103.551 136.073 103.656 136.192C103.869 136.492 104.177 136.712 104.531 136.815C104.763 136.885 105.006 136.907 105.247 136.881C105.487 136.854 105.72 136.779 105.931 136.661L105.7 136.5C105.665 136.736 105.696 136.978 105.792 137.197C105.887 137.416 106.042 137.604 106.239 137.739C106.462 137.884 106.725 137.955 106.99 137.942C107.256 137.928 107.51 137.83 107.716 137.662C107.808 137.584 107.891 137.494 107.961 137.396H107.639C107.771 137.681 107.985 137.921 108.254 138.083C108.523 138.246 108.834 138.325 109.148 138.309C109.462 138.293 109.764 138.184 110.015 137.995C110.267 137.806 110.456 137.546 110.558 137.249L110.334 137.312C110.47 137.411 110.624 137.481 110.788 137.518C110.951 137.555 111.121 137.559 111.286 137.529C111.544 137.5 111.788 137.395 111.986 137.228C112.238 136.899 112.259 136.647 112.238 136.647Z" fill="#455A64"/>
<path d="M86.905 129.185C87.004 128.995 87.1369 128.824 87.297 128.681C87.406 128.59 87.5327 128.523 87.6689 128.483C87.8052 128.444 87.9482 128.433 88.0888 128.452C88.2295 128.47 88.3649 128.517 88.4864 128.59C88.6079 128.664 88.713 128.761 88.795 128.877L88.963 129.108L89.005 128.821C89.0546 128.521 89.1795 128.238 89.3681 128C89.5566 127.761 89.8026 127.574 90.083 127.456C90.4253 127.324 90.8007 127.303 91.1554 127.397C91.5101 127.492 91.8257 127.696 92.057 127.981L92.267 128.24L92.351 127.918C92.4441 127.606 92.6055 127.318 92.8234 127.076C93.0414 126.834 93.3104 126.643 93.611 126.518C93.936 126.389 94.288 126.343 94.6352 126.385C94.9823 126.426 95.3136 126.554 95.599 126.756C95.8357 126.921 96.0359 127.133 96.187 127.379L96.292 127.547L96.453 127.428C96.8357 127.155 97.299 127.018 97.7686 127.04C98.2381 127.062 98.6869 127.24 99.043 127.547C99.3411 127.832 99.5516 128.196 99.6496 128.597C99.7475 128.997 99.729 129.418 99.596 129.808L99.498 130.067L99.764 130.004C100.356 129.878 100.974 129.989 101.486 130.312C101.879 130.563 102.185 130.93 102.361 131.362C102.503 131.745 102.576 132.15 102.578 132.559C102.578 132.559 102.634 132.454 102.648 132.237C102.676 131.919 102.633 131.599 102.522 131.299C102.357 130.817 102.04 130.402 101.619 130.116C101.342 129.925 101.03 129.791 100.7 129.722C100.371 129.652 100.032 129.648 99.701 129.71L99.876 129.913C100.074 129.43 100.108 128.895 99.9725 128.391C99.8369 127.887 99.5392 127.441 99.1254 127.123C98.7115 126.804 98.2045 126.631 97.6823 126.629C97.1602 126.627 96.652 126.797 96.236 127.113L96.502 127.162C96.3205 126.882 96.0819 126.644 95.802 126.462C95.4668 126.223 95.0768 126.073 94.668 126.025C94.2593 125.978 93.8452 126.034 93.464 126.189C93.1137 126.338 92.8014 126.563 92.5505 126.849C92.2996 127.135 92.1166 127.474 92.015 127.841L92.316 127.778C92.0683 127.47 91.7352 127.243 91.3584 127.124C90.9816 127.005 90.5781 127 90.1987 127.11C89.8193 127.22 89.4809 127.44 89.2261 127.742C88.9713 128.044 88.8116 128.414 88.767 128.807L88.977 128.751C88.8571 128.599 88.7037 128.477 88.5288 128.395C88.354 128.312 88.1624 128.271 87.969 128.275C87.6839 128.286 87.4125 128.4 87.206 128.597C87.0794 128.714 86.9833 128.861 86.926 129.024C86.898 129.122 86.898 129.185 86.905 129.185Z" fill="#455A64"/>
<path d="M100.289 153.139C100.121 153.195 100.576 154.308 99.953 155.484C99.33 156.66 98.098 157.024 98.147 157.185C98.196 157.346 98.504 157.29 99.008 157.101C99.6607 156.842 100.201 156.361 100.534 155.743C100.856 155.149 100.933 154.454 100.751 153.804C100.604 153.3 100.366 153.097 100.289 153.139Z" fill="#263238"/>
<path d="M93.471 173.299L87.927 188.916L89.208 205.996L92.708 235.501C92.708 235.501 105.707 231.112 106.295 231.553C106.883 231.994 100.541 201.642 100.541 201.642L105.126 176.946L104.832 169.673L93.471 173.299Z" fill="#150A87"/>
<path d="M93.471 173.299L87.374 187.299L74.774 192.241L61.6 196.322L63.448 205.8C63.5394 206.26 63.7242 206.697 63.991 207.083C64.2578 207.469 64.6009 207.796 64.9992 208.044C65.3974 208.292 65.8423 208.455 66.3064 208.525C66.7704 208.594 67.2437 208.567 67.697 208.446L78.848 205.45L89.236 204.974L94.64 192.416L93.471 173.299Z" fill="#150A87"/>
<path d="M65.905 192.423L66.829 191.275C67.7382 191.267 68.6377 191.463 69.461 191.849C70.6676 192.841 71.552 194.169 72.002 195.664C72.1032 196.74 72.1032 197.822 72.002 198.898L65.702 192.423" fill="#A2675F"/>
<path d="M53.62 185.619C53.62 185.808 65.52 198.415 65.52 198.415L67.76 200.627H74.9L61.04 185.227L55.062 184.205L53.62 185.619Z" fill="#263238"/>
<path d="M101.885 213.626C101.779 213.489 101.687 213.341 101.612 213.185L100.912 211.883C100.31 210.749 99.456 209.083 98.462 206.983C97.2797 204.556 96.2281 202.067 95.312 199.528C95.0503 198.788 94.8329 198.033 94.661 197.267C94.572 196.865 94.5089 196.459 94.472 196.049C94.472 195.643 94.472 195.23 94.472 194.817C94.472 193.158 94.472 191.443 94.556 189.686C94.64 187.46 94.752 185.311 94.885 183.267V183.162L94.983 183.12L98.672 181.496L98.714 181.818L95.914 181.447H95.676L95.795 181.244C97.615 178.122 99.127 175.511 100.212 173.642L101.465 171.542L101.808 170.996C101.843 170.929 101.888 170.868 101.941 170.814C101.92 170.885 101.889 170.954 101.85 171.017L101.549 171.591L100.366 173.747L96.068 181.412L95.949 181.181L98.749 181.531L99.344 181.601L98.798 181.846L95.123 183.484L95.228 183.33C95.102 185.374 94.99 187.53 94.906 189.742C94.843 191.492 94.801 193.2 94.815 194.852C94.815 195.265 94.815 195.671 94.815 196.077C94.8454 196.468 94.9038 196.856 94.99 197.239C95.1554 197.992 95.3634 198.735 95.613 199.465C96.6 202.328 97.713 204.827 98.686 206.92C99.659 209.013 100.457 210.679 101.024 211.82L101.668 213.15C101.752 213.303 101.824 213.462 101.885 213.626Z" fill="#263238"/>
<path d="M60.641 192.423C60.641 192.423 58.835 193.725 58.884 194.467C58.8845 194.794 58.9644 195.115 59.1168 195.404C59.2692 195.693 59.4896 195.941 59.759 196.126C60.179 196.266 61.425 196.91 61.425 196.91C61.425 196.91 60.312 197.974 60.641 199.087C60.7018 199.384 60.8282 199.664 61.0111 199.907C61.194 200.149 61.4286 200.347 61.698 200.487C61.7236 201.261 61.8798 202.026 62.16 202.748C62.5852 203.325 63.2128 203.72 63.917 203.854C64.3097 204.651 64.7785 205.408 65.317 206.115C65.8578 206.617 66.5304 206.954 67.256 207.088C67.256 207.088 68.922 207.277 69.797 206.675C70.3912 206.376 70.8864 205.912 71.223 205.338C71.5595 204.764 71.7231 204.106 71.694 203.441C71.694 203.441 75.67 201.453 75.712 200.438C75.754 199.423 75.299 199.101 75.299 199.101L73.311 199.465C73.311 199.465 73.031 198.408 72.436 198.31C71.841 198.212 64.582 199.976 64.582 199.976C64.582 199.976 69.524 199.192 69.664 198.219C69.804 197.246 69.846 196.42 69.104 196.231C68.362 196.042 63.105 196.616 63.105 196.616L62.825 195.678C62.825 195.678 64.225 195.727 64.225 194.481C64.225 193.235 63.441 192.955 63.441 192.955L60.641 192.423Z" fill="#A2675F"/>
<path d="M101.885 170.8L102.487 175.623L98.756 196.602L102.543 214.711L122.171 220.514L129.892 217.182L127.253 166.348L120.239 161.42L117.544 159.607L107.436 174.909L101.885 170.8Z" fill="#FAFAFA"/>
<path d="M119.7 161.035L124.6 163.219L141.974 165.557L151.347 214.851L152.523 220.514L170.492 247.401C170.687 247.693 170.82 248.022 170.882 248.367C170.944 248.712 170.935 249.067 170.854 249.408C170.773 249.75 170.623 250.071 170.412 250.352C170.202 250.633 169.936 250.867 169.631 251.041L154.931 259.441C154.385 259.721 153.755 259.79 153.161 259.635C152.567 259.48 152.051 259.112 151.711 258.601L133 230.426L123.732 218.561C123.732 218.561 118.181 201.761 117.432 194.614C116.849 188.348 116.849 182.042 117.432 175.777C117.866 171.5 119.7 161.035 119.7 161.035Z" fill="#150A87"/>
<path d="M141.946 165.557C143.077 166.151 144.059 166.992 144.819 168.019C145.579 169.046 146.097 170.231 146.335 171.486C147.441 177.338 150.773 187.544 152.026 198.443C153.776 213.689 149.674 218.393 147.742 221.025C145.81 223.657 133.826 229.243 133.826 229.243L124.817 217.245L134.792 209.069L133.917 187.894C133.917 187.894 130.417 183.078 132.167 175.924C133.917 168.77 139.027 165.123 141.967 165.557H141.946Z" fill="#150A87"/>
<g opacity="0.3">
<path d="M151.242 214.452C149.877 218.148 148.316 221.27 145.138 223.027C141.75 224.903 137.039 227.549 133.826 229.243L136.178 232.897C139.867 232.33 146.678 228.032 148.89 225.029C151.031 221.948 151.876 218.15 151.242 214.452Z" fill="black"/>
</g>
<path d="M133.7 189C133.73 189.103 133.751 189.208 133.763 189.315C133.805 189.546 133.854 189.854 133.924 190.246C134.05 191.093 134.239 192.297 134.477 193.844C134.953 196.994 135.632 201.544 136.465 207.144V207.214L136.409 207.263L124.936 217.371V217.154L133.952 229.145L133.728 229.096C136.724 227.584 139.825 225.946 142.891 224.133C143.766 223.608 144.627 223.083 145.46 222.516C146.288 221.983 147.063 221.374 147.777 220.696C148.992 219.188 149.955 217.493 150.626 215.677C151.862 212.207 152.435 208.536 152.313 204.855C152.229 201.516 151.909 198.187 151.354 194.894C150.871 191.793 150.311 188.923 149.758 186.312C148.659 181.083 147.595 176.89 146.853 173.999C146.475 172.599 146.153 171.451 145.978 170.674C145.88 170.303 145.803 170.016 145.754 169.806C145.719 169.709 145.695 169.608 145.684 169.505C145.684 169.505 145.726 169.603 145.789 169.792C145.852 169.981 145.936 170.289 146.048 170.653C146.272 171.402 146.594 172.522 146.993 173.964C147.777 176.848 148.876 181.034 150.01 186.256C150.584 188.867 151.158 191.744 151.655 194.852C152.224 198.156 152.554 201.497 152.642 204.848C152.777 208.575 152.207 212.294 150.962 215.81C150.274 217.667 149.288 219.4 148.043 220.941C147.314 221.643 146.516 222.272 145.663 222.817C144.823 223.384 143.955 223.916 143.08 224.441C139.993 226.268 136.899 227.906 133.889 229.411L133.756 229.481L133.665 229.362L124.67 217.35L124.579 217.224L124.691 217.126L136.206 207.06L136.164 207.179C135.373 201.579 134.764 197.043 134.295 193.879C134.085 192.332 133.917 191.079 133.805 190.274C133.756 189.875 133.714 189.574 133.686 189.336C133.684 189.224 133.688 189.112 133.7 189Z" fill="#263238"/>
<path d="M120.981 207.109C120.976 206.945 120.99 206.78 121.023 206.619C121.065 206.269 121.128 205.807 121.198 205.219C121.38 203.973 121.625 202.244 121.933 200.13C122.542 195.832 123.501 189.91 124.432 183.33C124.866 180.152 125.279 177.128 125.65 174.37L125.762 174.545L122.794 173.411L122.5 173.299L122.759 173.131L125.741 171.199L125.685 171.332C125.328 168.861 125.041 166.838 124.831 165.382C124.747 164.682 124.67 164.171 124.621 163.758C124.584 163.569 124.568 163.376 124.572 163.184C124.63 163.367 124.672 163.554 124.698 163.744C124.768 164.157 124.866 164.689 124.985 165.361C125.223 166.81 125.552 168.826 125.951 171.29V171.381L125.881 171.43L122.92 173.39L122.885 173.117L125.867 174.23L125.993 174.279V174.412C125.629 177.17 125.223 180.201 124.796 183.379C123.872 189.938 122.871 195.86 122.192 200.179C121.842 202.279 121.555 204.015 121.345 205.254L121.1 206.654C121.075 206.809 121.035 206.961 120.981 207.109Z" fill="#263238"/>
<path d="M139.3 166.222C139.342 166.278 138.453 166.922 137.256 168.133C136.561 168.862 135.929 169.649 135.366 170.485C133.973 172.535 133.019 174.852 132.566 177.289C132.383 178.28 132.285 179.284 132.272 180.292C132.272 182.021 132.461 183.092 132.391 183.092C132.297 182.854 132.235 182.604 132.209 182.35C132.149 182.061 132.107 181.769 132.083 181.475C132.04 181.082 132.016 180.687 132.013 180.292C131.986 179.265 132.059 178.239 132.23 177.226C132.456 175.989 132.803 174.776 133.266 173.607C133.754 172.446 134.357 171.337 135.065 170.296C135.651 169.453 136.317 168.667 137.053 167.951C137.331 167.675 137.623 167.413 137.928 167.167C138.151 166.972 138.385 166.79 138.628 166.621C138.833 166.459 139.059 166.325 139.3 166.222Z" fill="#263238"/>
<path d="M89.131 204.988C89.033 204.988 88.711 201.6 88.431 197.4C88.151 193.2 87.976 189.798 88.081 189.784C88.186 189.77 88.501 193.179 88.781 197.372C89.061 201.565 89.229 204.981 89.131 204.988Z" fill="#263238"/>
<path d="M148.309 235.893L151.004 241.395L163.485 233.408L159.166 228.515L148.309 235.893Z" fill="#150A87"/>
<path d="M148.309 235.9C148.545 235.694 148.796 235.504 149.058 235.333L151.256 233.786L159.068 228.382L159.194 228.298L159.292 228.41L163.625 233.31L163.765 233.471L163.583 233.583L163.037 233.933L151.074 241.5L150.948 241.577L150.892 241.444L148.96 237.356C148.757 236.908 148.589 236.544 148.463 236.257C148.401 236.138 148.349 236.014 148.309 235.886C148.397 236.006 148.472 236.135 148.533 236.271C148.68 236.558 148.869 236.922 149.107 237.363L151.123 241.332L150.934 241.283L162.834 233.583L163.38 233.233V233.506C161.854 231.777 160.398 230.125 159.068 228.606H159.292L151.473 233.821L149.191 235.312L148.568 235.711L148.309 235.9Z" fill="#263238"/>
<g opacity="0.3">
<path d="M148.4 236.138C148.456 236.243 151.2 244.587 151.2 244.587L162.841 236.327L161.84 234.5L151.004 241.43L148.4 236.138Z" fill="black"/>
</g>
<g opacity="0.3">
<path d="M124.922 165.522L127.022 172.347L124.922 173.299L127.687 174.657C127.687 174.657 123.333 198.457 122.787 200.627C122.241 202.797 121.569 203.497 121.569 203.497L125.818 174.426L122.85 173.299L125.818 171.346L124.922 165.522Z" fill="black"/>
</g>
<path d="M78.869 202.713C78.8139 201.076 78.5481 199.452 78.078 197.883C77.4926 196.356 76.7164 194.91 75.768 193.578C76.1666 193.865 76.5084 194.223 76.776 194.635C78.2009 196.552 78.9869 198.869 79.023 201.257C79.0595 201.748 79.0074 202.241 78.869 202.713Z" fill="#263238"/>
<g opacity="0.3">
<path d="M87.976 189.112C85.876 194.292 86.653 199.969 89.082 204.988C88.704 199.213 88.48 194.712 87.976 189.112Z" fill="black"/>
</g>
<path d="M118.181 165.347C118.086 165.593 117.964 165.828 117.817 166.047L116.732 167.86C115.822 169.4 114.632 171.542 113.421 173.985C112.609 175.63 111.916 177.205 111.321 178.535L111.244 178.731L111.083 178.605C110.158 177.867 109.287 177.062 108.479 176.197C108.155 175.886 107.868 175.539 107.625 175.161C107.975 175.441 108.305 175.745 108.612 176.071C109.459 176.877 110.347 177.638 111.272 178.353L111.034 178.416C111.573 177.065 112.252 175.483 113.064 173.824C114.09 171.73 115.23 169.695 116.48 167.727C116.963 166.971 117.376 166.376 117.67 165.97C117.814 165.742 117.986 165.533 118.181 165.347Z" fill="#263238"/>
<path d="M106.687 175C106.412 176.222 106.02 177.415 105.518 178.563L105.427 178.808L105.231 178.64L105.14 178.556C104.122 177.746 103.246 176.771 102.55 175.672C102.627 175.602 103.782 176.89 105.35 178.283L105.441 178.36L105.154 178.437C105.554 177.245 106.067 176.094 106.687 175Z" fill="#263238"/>
<path d="M108.745 210.819C108.706 210.711 108.687 210.597 108.689 210.483C108.689 210.21 108.633 209.888 108.598 209.496C108.542 208.579 108.458 207.354 108.36 205.863C108.171 202.797 107.954 198.562 107.765 193.879C107.576 189.196 107.478 184.954 107.478 181.881C107.478 180.341 107.478 179.081 107.527 178.241C107.527 177.849 107.527 177.541 107.576 177.254C107.576 177.138 107.59 177.023 107.618 176.911C107.637 177.025 107.637 177.14 107.618 177.254C107.618 177.52 107.618 177.849 107.618 178.241C107.618 179.158 107.66 180.383 107.688 181.874C107.751 184.947 107.898 189.182 108.08 193.865C108.262 198.548 108.437 202.734 108.563 205.849C108.619 207.347 108.661 208.572 108.696 209.489C108.696 209.881 108.696 210.189 108.696 210.476C108.723 210.589 108.739 210.703 108.745 210.819Z" fill="#263238"/>
<path d="M67.76 305.354L69.573 322.441C69.573 322.441 52.773 330.029 52.836 333.214L86.1 330.897L84.371 304.143L67.76 305.354Z" fill="#150A87"/>
<path d="M79.758 320.285C80.081 320.367 80.3642 320.561 80.5566 320.833C80.7491 321.105 80.8382 321.437 80.808 321.769C80.7448 322.098 80.5579 322.39 80.2857 322.586C80.0136 322.781 79.6769 322.864 79.345 322.819C78.9955 322.746 78.6871 322.542 78.4829 322.25C78.2786 321.957 78.1938 321.597 78.246 321.244C78.3455 320.907 78.5721 320.623 78.8778 320.45C79.1836 320.278 79.5444 320.231 79.884 320.32" fill="#E0E0E0"/>
<path d="M86.177 331.59L86.009 329L54.033 331.436C54.033 331.436 52.591 332.185 52.836 333.214L86.177 331.59Z" fill="#E0E0E0"/>
<path d="M69.02 322.315C69.02 322.476 69.853 322.49 70.693 322.959C71.533 323.428 72.002 324.079 72.142 324.002C72.282 323.925 71.981 323.008 70.959 322.462C69.937 321.916 68.978 322.168 69.02 322.315Z" fill="#263238"/>
<path d="M65.632 324.002C65.632 324.156 66.332 324.387 66.927 325.038C67.522 325.689 67.739 326.396 67.9 326.382C68.061 326.368 68.103 325.437 67.34 324.646C66.577 323.855 65.625 323.841 65.632 324.002Z" fill="#263238"/>
<path d="M63.945 328.3C64.092 328.3 64.26 327.495 63.784 326.634C63.308 325.773 62.517 325.472 62.461 325.612C62.405 325.752 62.902 326.2 63.287 326.907C63.672 327.614 63.777 328.3 63.945 328.3Z" fill="#263238"/>
<path d="M69.041 318.374C69.118 318.514 69.846 318.241 70.77 318.234C71.694 318.227 72.429 318.472 72.506 318.332C72.583 318.192 71.848 317.632 70.763 317.667C69.678 317.702 68.95 318.248 69.041 318.374Z" fill="#263238"/>
<path d="M61.838 236.383L46.438 243.999C46.438 243.999 33.516 230.895 30.534 232.029L44.226 262.43L68.726 251.545L61.838 236.383Z" fill="#150A87"/>
<path d="M51.982 252.805C52.0259 253.138 51.945 253.475 51.755 253.751C51.565 254.028 51.2793 254.225 50.953 254.303C50.6225 254.359 50.283 254.286 50.0053 254.098C49.7276 253.91 49.533 253.623 49.462 253.295C49.4099 252.942 49.4946 252.582 49.6989 252.289C49.9031 251.997 50.2115 251.793 50.561 251.72C50.9053 251.708 51.2415 251.826 51.5015 252.053C51.7614 252.279 51.9257 252.595 51.961 252.938" fill="#E0E0E0"/>
<path d="M43.596 262.745L45.969 261.688L32.606 232.533C32.606 232.533 31.409 231.448 30.506 232.029L43.596 262.745Z" fill="#E0E0E0"/>
<path d="M46.361 243.439C46.214 243.509 46.48 244.279 46.361 245.224C46.242 246.169 45.766 246.841 45.885 246.953C46.004 247.065 46.767 246.456 46.921 245.308C47.075 244.16 46.487 243.341 46.361 243.439Z" fill="#263238"/>
<path d="M43.603 240.842C43.449 240.842 43.484 241.633 43.085 242.417C42.686 243.201 42.084 243.649 42.154 243.817C42.224 243.985 43.113 243.677 43.589 242.69C44.065 241.703 43.75 240.8 43.603 240.842Z" fill="#263238"/>
<path d="M38.976 240.751C38.976 240.898 39.837 240.751 40.481 240.051C41.125 239.351 41.132 238.462 40.978 238.455C40.824 238.448 40.586 239.078 40.047 239.68C39.508 240.282 38.92 240.597 38.976 240.751Z" fill="#263238"/>
<path d="M50.064 242.088C49.959 242.214 50.47 242.788 50.764 243.67C51.058 244.552 51.114 245.308 51.275 245.322C51.436 245.336 51.688 244.475 51.275 243.467C50.862 242.459 50.148 241.962 50.064 242.088Z" fill="#263238"/>
<path d="M69.356 246.071C67.6906 246.486 66.1796 247.371 65.0031 248.621C63.8265 249.871 63.034 251.433 62.72 253.12C61.593 259.049 65.674 318.682 65.674 318.682L86.604 317.002L85.323 276.822L84.805 268.716L86.604 267.316L123.389 260.841L117.789 245.637L111.636 234.927L83.461 241.927L69.356 246.071Z" fill="#263238"/>
<path d="M138.6 236.026C138.6 236.026 123.382 214.025 118.93 210.826C115.262 208.187 109.746 208.194 106.33 209.727C102.914 211.26 49.63 237.692 49.63 237.692L57.449 257.292L108.171 239.715L115.731 251.615L122.773 260.939L142.541 261.093C143.472 261.093 147.721 252.693 147.721 252.693L138.6 236.026Z" fill="#263238"/>
<path d="M62.524 257.719C62.5135 257.652 62.5135 257.583 62.524 257.516C62.524 257.355 62.524 257.159 62.524 256.914C62.524 256.669 62.524 256.312 62.524 255.927C62.524 255.542 62.615 255.094 62.671 254.59C62.727 254.086 62.888 253.547 63 252.938C63.063 252.637 63.189 252.336 63.287 252.021C63.3886 251.688 63.515 251.362 63.665 251.048C64.313 249.53 65.3457 248.208 66.661 247.212C67.4273 246.629 68.2999 246.201 69.23 245.952L72.261 245.434L78.932 244.321L94.227 241.787L108.115 239.512H108.227L108.29 239.61C112.357 245.959 115.661 251.51 118.44 255.094C119.784 256.907 120.862 258.349 121.618 259.357C121.975 259.84 122.255 260.218 122.465 260.491L122.675 260.785L122.745 260.89C122.745 260.89 122.745 260.89 122.654 260.806L122.416 260.526L121.527 259.427C120.757 258.461 119.637 257.04 118.272 255.227C115.437 251.643 112.084 246.127 108.003 239.827L108.171 239.904L94.283 242.2L78.988 244.706L72.31 245.791L69.293 246.281C68.3966 246.516 67.5533 246.92 66.808 247.471C65.5206 248.436 64.5033 249.716 63.854 251.188C63.6988 251.494 63.57 251.812 63.469 252.14C63.3519 252.435 63.2514 252.737 63.168 253.043C63.0213 253.577 62.9044 254.12 62.818 254.667L62.629 255.99C62.629 256.368 62.587 256.69 62.573 256.97C62.559 257.25 62.573 257.418 62.531 257.572C62.5325 257.621 62.5301 257.67 62.524 257.719Z" fill="#455A64"/>
<path d="M115.43 226.1C115.483 226.306 115.509 226.518 115.507 226.73C115.554 227.305 115.554 227.884 115.507 228.459C115.428 229.316 115.271 230.164 115.038 230.993C114.743 232.005 114.353 232.986 113.876 233.926C113.374 234.853 112.788 235.731 112.126 236.551C111.573 237.211 110.964 237.823 110.306 238.378C109.868 238.752 109.4 239.089 108.906 239.386C108.732 239.511 108.541 239.61 108.339 239.68C108.304 239.624 109.039 239.148 110.138 238.182C110.759 237.614 111.335 236.999 111.86 236.341C112.498 235.53 113.065 234.666 113.554 233.758C114.022 232.838 114.411 231.881 114.716 230.895C114.96 230.089 115.138 229.265 115.248 228.431C115.409 227.01 115.36 226.1 115.43 226.1Z" fill="#455A64"/>
<path d="M291.83 295.876L200.235 295.827C194.944 295.823 189.872 293.719 186.132 289.977C182.393 286.235 180.292 281.161 180.292 275.87L180.341 46.2C180.341 43.579 180.857 40.9836 181.861 38.5622C182.864 36.1409 184.335 33.941 186.189 32.0883C188.043 30.2356 190.244 28.7663 192.666 27.7646C195.088 26.7628 197.684 26.2482 200.305 26.25L291.9 26.334C297.19 26.3377 302.263 28.442 306.003 32.1842C309.742 35.9265 311.843 41.0005 311.843 46.291L311.801 275.933C311.799 278.554 311.281 281.149 310.277 283.569C309.272 285.99 307.8 288.189 305.946 290.041C304.091 291.893 301.89 293.361 299.468 294.362C297.046 295.363 294.451 295.878 291.83 295.876Z" fill="#263238"/>
<path d="M291.802 34.454H274.043C272.874 34.4815 271.763 34.9716 270.955 35.8166C270.147 36.6617 269.707 37.7928 269.731 38.962V42.182C269.744 42.7612 269.643 43.3372 269.433 43.8772C269.223 44.4173 268.909 44.9107 268.509 45.3293C268.109 45.748 267.63 46.0836 267.099 46.3171C266.569 46.5505 265.998 46.6773 265.419 46.69H230.804C230.225 46.6773 229.654 46.5505 229.124 46.3171C228.593 46.0836 228.114 45.748 227.714 45.3293C227.314 44.9107 227 44.4173 226.79 43.8772C226.58 43.3372 226.479 42.7612 226.492 42.182V38.92C226.516 37.7508 226.076 36.6197 225.268 35.7746C224.46 34.9296 223.349 34.4395 222.18 34.412H215.929H200.389C196.676 34.412 193.115 35.887 190.49 38.5125C187.864 41.138 186.389 44.699 186.389 48.412L186.347 272.559C186.347 276.266 187.817 279.822 190.435 282.446C193.053 285.071 196.605 286.55 200.312 286.559L291.732 286.608C295.445 286.608 299.006 285.133 301.631 282.507C304.257 279.882 305.732 276.321 305.732 272.608L305.781 48.461C305.783 44.7504 304.312 41.1908 301.69 38.5644C299.069 35.938 295.513 34.4596 291.802 34.454Z" fill="white"/>
<path d="M305.774 48.433C305.774 44.72 304.299 41.159 301.673 38.5335C299.048 35.908 295.487 34.433 291.774 34.433H274.015C272.846 34.4605 271.735 34.9506 270.927 35.7956C270.119 36.6407 269.679 37.7718 269.703 38.941V42.161C269.716 42.7402 269.615 43.3162 269.405 43.8562C269.195 44.3963 268.881 44.8897 268.481 45.3083C268.081 45.727 267.602 46.0626 267.071 46.2961C266.541 46.5295 265.97 46.6563 265.391 46.669H230.776C230.197 46.6563 229.626 46.5295 229.096 46.2961C228.565 46.0626 228.086 45.727 227.686 45.3083C227.286 44.8897 226.972 44.3963 226.762 43.8562C226.552 43.3162 226.451 42.7402 226.464 42.161V38.92C226.488 37.7508 226.048 36.6197 225.24 35.7746C224.432 34.9296 223.321 34.4395 222.152 34.412H215.901H200.361C196.648 34.412 193.087 35.887 190.462 38.5125C187.836 41.138 186.361 44.699 186.361 48.412L186.319 69.846H305.767L305.774 48.433Z" fill="#F5F5F5"/>
<path d="M296.058 56.308C296.058 56.371 293.916 56.448 291.277 56.469C289.683 56.5239 288.087 56.4958 286.496 56.385C289.68 56.1961 292.871 56.1704 296.058 56.308Z" fill="#263238"/>
<path d="M296.1 58.751C294.513 58.888 292.919 58.9418 291.326 58.912C289.732 58.9668 288.136 58.9388 286.545 58.828C286.545 58.765 288.68 58.695 291.326 58.667C293.972 58.639 296.1 58.688 296.1 58.751Z" fill="#263238"/>
<path d="M296.1 61.201C296.1 61.264 293.965 61.334 291.326 61.355C289.732 61.4098 288.136 61.3841 286.545 61.278C289.727 61.089 292.916 61.0633 296.1 61.201Z" fill="#263238"/>
<path d="M212.877 225.568L213.36 224.553C214.211 225.243 215.275 225.614 216.37 225.603C217.938 225.603 218.617 224.994 218.617 224.203C218.617 221.984 213.101 223.384 213.101 220.003C213.101 218.603 214.193 217.399 216.601 217.399C217.635 217.379 218.651 217.661 219.527 218.211L219.1 219.24C218.353 218.764 217.487 218.507 216.601 218.498C215.054 218.498 214.389 219.149 214.389 219.947C214.389 222.173 219.905 220.78 219.905 224.147C219.905 225.547 218.785 226.737 216.405 226.737C215.128 226.773 213.88 226.359 212.877 225.568Z" fill="#263238"/>
<path d="M220.969 223.16C220.961 222.686 221.052 222.215 221.234 221.777C221.417 221.339 221.688 220.944 222.03 220.616C222.372 220.287 222.779 220.033 223.223 219.868C223.668 219.704 224.142 219.633 224.616 219.66C225.172 219.627 225.727 219.747 226.22 220.006C226.713 220.265 227.127 220.654 227.416 221.13L226.471 221.739C226.269 221.428 225.99 221.174 225.662 221.001C225.333 220.828 224.966 220.742 224.595 220.752C223.974 220.785 223.39 221.055 222.962 221.507C222.535 221.958 222.296 222.556 222.296 223.178C222.296 223.799 222.535 224.397 222.962 224.848C223.39 225.3 223.974 225.57 224.595 225.603C224.966 225.615 225.334 225.53 225.663 225.357C225.992 225.184 226.27 224.929 226.471 224.616L227.416 225.218C227.126 225.694 226.713 226.083 226.22 226.343C225.727 226.603 225.173 226.725 224.616 226.695C224.14 226.721 223.663 226.649 223.216 226.482C222.769 226.315 222.362 226.057 222.019 225.725C221.677 225.393 221.407 224.994 221.226 224.552C221.045 224.111 220.958 223.637 220.969 223.16Z" fill="#263238"/>
<path d="M234.5 222.446V226.604H233.317V225.694C233.054 226.036 232.709 226.306 232.314 226.479C231.918 226.651 231.486 226.721 231.056 226.681C229.495 226.681 228.501 225.848 228.501 224.651C228.501 223.454 229.201 222.635 231.301 222.635H233.282V222.39C233.282 221.34 232.666 220.724 231.434 220.724C230.643 220.717 229.873 220.979 229.25 221.466L228.725 220.528C229.551 219.927 230.553 219.617 231.574 219.646C233.436 219.646 234.5 220.556 234.5 222.446ZM233.254 224.497V223.538H231.329C230.09 223.538 229.74 224.014 229.74 224.602C229.74 225.19 230.314 225.722 231.259 225.722C231.678 225.753 232.096 225.651 232.454 225.432C232.812 225.212 233.092 224.885 233.254 224.497Z" fill="#263238"/>
<path d="M243.362 222.635V226.604H242.109V222.782C242.109 221.431 241.409 220.766 240.254 220.766C239.952 220.743 239.648 220.788 239.366 220.896C239.083 221.004 238.827 221.174 238.618 221.393C238.408 221.612 238.25 221.874 238.154 222.162C238.058 222.449 238.027 222.754 238.063 223.055V226.604H236.817V219.709H238V220.752C238.296 220.382 238.676 220.089 239.108 219.897C239.54 219.704 240.013 219.618 240.485 219.646C242.2 219.646 243.362 220.612 243.362 222.635Z" fill="#263238"/>
<path d="M252.217 222.635V226.604H250.971V222.782C250.971 221.431 250.271 220.766 249.109 220.766C248.807 220.743 248.504 220.787 248.221 220.896C247.939 221.004 247.684 221.174 247.475 221.393C247.266 221.612 247.108 221.875 247.013 222.162C246.918 222.45 246.888 222.755 246.925 223.055V226.604H245.7V219.709H246.897V220.752C247.192 220.382 247.572 220.088 248.004 219.895C248.437 219.703 248.909 219.617 249.382 219.646C251.034 219.646 252.217 220.612 252.217 222.635Z" fill="#263238"/>
<path d="M254.317 217.574C254.31 217.405 254.354 217.238 254.443 217.094C254.532 216.95 254.662 216.836 254.816 216.766C254.971 216.697 255.143 216.676 255.309 216.705C255.476 216.734 255.63 216.812 255.752 216.93C255.874 217.048 255.957 217.199 255.992 217.365C256.027 217.53 256.011 217.703 255.947 217.859C255.883 218.016 255.774 218.15 255.633 218.244C255.492 218.338 255.326 218.387 255.157 218.386C255.048 218.389 254.94 218.37 254.839 218.33C254.737 218.291 254.645 218.232 254.567 218.156C254.489 218.081 254.426 217.99 254.383 217.89C254.34 217.79 254.318 217.683 254.317 217.574ZM254.534 219.709H255.787V226.604H254.534V219.709Z" fill="#263238"/>
<path d="M264.712 222.635V226.604H263.459V222.782C263.459 221.431 262.759 220.766 261.597 220.766C261.295 220.743 260.992 220.787 260.709 220.896C260.427 221.004 260.172 221.174 259.963 221.393C259.754 221.612 259.596 221.875 259.501 222.162C259.406 222.45 259.376 222.755 259.413 223.055V226.604H258.167V219.709H259.364V220.752C259.66 220.382 260.04 220.089 260.472 219.897C260.904 219.704 261.377 219.618 261.849 219.646C263.522 219.646 264.712 220.612 264.712 222.635Z" fill="#263238"/>
<path d="M273.658 219.709V225.673C273.658 228.102 272.426 229.208 270.081 229.208C268.898 229.258 267.735 228.894 266.791 228.179L267.386 227.22C268.142 227.813 269.078 228.13 270.039 228.116C271.67 228.116 272.412 227.36 272.412 225.799V225.253C272.102 225.603 271.719 225.88 271.289 226.064C270.859 226.248 270.394 226.334 269.927 226.317C269.476 226.338 269.026 226.267 268.603 226.108C268.18 225.95 267.794 225.708 267.468 225.396C267.141 225.084 266.882 224.71 266.704 224.295C266.527 223.88 266.435 223.433 266.435 222.982C266.435 222.53 266.527 222.084 266.704 221.669C266.882 221.254 267.141 220.879 267.468 220.567C267.794 220.255 268.18 220.013 268.603 219.855C269.026 219.696 269.476 219.625 269.927 219.646C270.41 219.627 270.891 219.719 271.333 219.916C271.775 220.112 272.166 220.408 272.475 220.78V219.709H273.658ZM272.433 222.978C272.46 222.502 272.343 222.029 272.097 221.62C271.852 221.211 271.489 220.886 271.057 220.685C270.624 220.485 270.141 220.419 269.67 220.497C269.2 220.574 268.764 220.791 268.418 221.119C268.072 221.448 267.833 221.872 267.731 222.338C267.63 222.804 267.67 223.29 267.848 223.732C268.026 224.175 268.333 224.554 268.728 224.82C269.124 225.086 269.59 225.227 270.067 225.225C270.374 225.249 270.682 225.208 270.972 225.105C271.261 225.002 271.526 224.839 271.749 224.627C271.972 224.415 272.148 224.159 272.266 223.875C272.384 223.591 272.441 223.285 272.433 222.978Z" fill="#263238"/>
<path d="M275.45 225.785C275.448 225.668 275.47 225.552 275.514 225.444C275.558 225.335 275.624 225.237 275.707 225.155C275.79 225.072 275.888 225.007 275.997 224.964C276.106 224.921 276.222 224.9 276.339 224.903C276.575 224.903 276.801 224.997 276.968 225.163C277.134 225.33 277.228 225.556 277.228 225.792C277.228 226.028 277.134 226.254 276.968 226.421C276.801 226.587 276.575 226.681 276.339 226.681C276.221 226.682 276.105 226.659 275.996 226.615C275.887 226.57 275.789 226.504 275.706 226.42C275.623 226.337 275.558 226.238 275.514 226.128C275.47 226.019 275.448 225.903 275.45 225.785Z" fill="#263238"/>
<path d="M278.404 225.785C278.402 225.668 278.424 225.552 278.468 225.444C278.512 225.335 278.578 225.237 278.661 225.155C278.744 225.072 278.842 225.007 278.951 224.964C279.06 224.921 279.176 224.9 279.293 224.903C279.529 224.903 279.755 224.997 279.922 225.163C280.088 225.33 280.182 225.556 280.182 225.792C280.182 226.028 280.088 226.254 279.922 226.421C279.755 226.587 279.529 226.681 279.293 226.681C279.175 226.682 279.059 226.659 278.95 226.615C278.841 226.57 278.743 226.504 278.66 226.42C278.577 226.337 278.512 226.238 278.468 226.128C278.424 226.019 278.402 225.903 278.404 225.785Z" fill="#263238"/>
<path d="M281.358 225.785C281.356 225.668 281.378 225.552 281.422 225.444C281.466 225.335 281.532 225.237 281.615 225.155C281.698 225.072 281.796 225.007 281.905 224.964C282.014 224.921 282.13 224.9 282.247 224.903C282.483 224.903 282.709 224.997 282.876 225.163C283.042 225.33 283.136 225.556 283.136 225.792C283.136 226.028 283.042 226.254 282.876 226.421C282.709 226.587 282.483 226.681 282.247 226.681C282.129 226.682 282.013 226.659 281.904 226.615C281.795 226.57 281.697 226.504 281.614 226.42C281.531 226.337 281.466 226.238 281.422 226.128C281.378 226.019 281.356 225.903 281.358 225.785Z" fill="#263238"/>
<path d="M281.407 238.224H208.404C201.979 238.224 196.77 243.433 196.77 249.858V252.329C196.77 258.754 201.979 263.963 208.404 263.963H281.407C287.832 263.963 293.041 258.754 293.041 252.329V249.858C293.041 243.433 287.832 238.224 281.407 238.224Z" fill="#EBEBEB"/>
<path d="M215.355 248.766L213.738 253.092H212.989L211.736 249.809L210.476 253.092H209.72L208.117 248.766H208.859L210.112 252.21L211.421 248.766H212.1L213.381 252.231L214.676 248.766H215.355Z" fill="#263238"/>
<path d="M222.6 248.766L220.983 253.092H220.234L218.988 249.809L217.721 253.092H217L215.39 248.766H216.132L217.392 252.21L218.694 248.766H219.359L220.64 252.231L221.928 248.766H222.6Z" fill="#263238"/>
<path d="M229.901 248.766L228.291 253.092H227.535L226.289 249.809L225.022 253.092H224.273L222.663 248.766H223.405L224.665 252.21L225.967 248.766H226.632L227.913 252.231L229.201 248.766H229.901Z" fill="#263238"/>
<path d="M230.062 252.581C230.06 252.508 230.073 252.434 230.1 252.366C230.127 252.298 230.168 252.236 230.219 252.183C230.271 252.131 230.333 252.09 230.401 252.062C230.469 252.034 230.542 252.02 230.615 252.021C230.764 252.021 230.906 252.08 231.011 252.185C231.116 252.29 231.175 252.432 231.175 252.581C231.175 252.729 231.116 252.872 231.011 252.977C230.906 253.082 230.764 253.141 230.615 253.141C230.542 253.141 230.469 253.126 230.402 253.098C230.334 253.07 230.273 253.029 230.221 252.977C230.17 252.924 230.129 252.863 230.102 252.795C230.075 252.727 230.061 252.654 230.062 252.581Z" fill="#263238"/>
<path d="M231.735 252.637L232.064 252.014C232.517 252.306 233.044 252.462 233.583 252.462C234.283 252.462 234.605 252.245 234.605 251.874C234.605 250.908 231.875 251.748 231.875 250.026C231.875 249.249 232.575 248.724 233.681 248.724C234.231 248.716 234.774 248.851 235.256 249.116L234.92 249.739C234.547 249.506 234.114 249.387 233.674 249.396C232.974 249.396 232.652 249.648 232.652 249.991C232.652 251.013 235.389 250.18 235.389 251.86C235.389 252.644 234.689 253.141 233.527 253.141C232.892 253.158 232.268 252.983 231.735 252.637Z" fill="#263238"/>
<path d="M236.236 247.429C236.236 247.36 236.25 247.292 236.277 247.228C236.304 247.165 236.343 247.108 236.393 247.06C236.443 247.012 236.502 246.975 236.566 246.951C236.63 246.926 236.699 246.915 236.768 246.918C236.84 246.91 236.912 246.916 236.981 246.938C237.05 246.96 237.113 246.996 237.167 247.044C237.221 247.092 237.264 247.15 237.294 247.216C237.323 247.282 237.339 247.353 237.339 247.425C237.339 247.498 237.323 247.569 237.294 247.635C237.264 247.701 237.221 247.759 237.167 247.807C237.113 247.855 237.05 247.891 236.981 247.913C236.912 247.935 236.84 247.941 236.768 247.933C236.7 247.936 236.632 247.925 236.568 247.901C236.504 247.877 236.445 247.84 236.396 247.793C236.346 247.746 236.306 247.69 236.279 247.627C236.251 247.565 236.237 247.497 236.236 247.429ZM236.376 248.766H237.16V253.092H236.376V248.766Z" fill="#263238"/>
<path d="M241.08 252.84C240.809 253.047 240.475 253.153 240.135 253.141C239.949 253.166 239.761 253.149 239.583 253.091C239.405 253.033 239.242 252.935 239.107 252.805C238.973 252.675 238.869 252.516 238.805 252.34C238.74 252.164 238.716 251.976 238.735 251.79V249.41H238.035V248.766H238.735V247.8H239.519V248.745H240.8V249.389H239.561V251.734C239.552 251.828 239.565 251.923 239.597 252.012C239.629 252.101 239.68 252.181 239.747 252.248C239.814 252.315 239.894 252.366 239.983 252.398C240.072 252.43 240.167 252.443 240.261 252.434C240.484 252.435 240.701 252.361 240.877 252.224L241.08 252.84Z" fill="#263238"/>
<path d="M245.777 251.195H242.277C242.328 251.566 242.518 251.903 242.81 252.137C243.102 252.372 243.472 252.485 243.845 252.455C244.078 252.464 244.31 252.422 244.525 252.332C244.74 252.243 244.933 252.108 245.091 251.937L245.525 252.441C245.205 252.765 244.798 252.989 244.353 253.087C243.909 253.184 243.445 253.151 243.019 252.991C242.593 252.831 242.222 252.552 241.951 252.186C241.68 251.82 241.521 251.383 241.493 250.929C241.478 250.639 241.524 250.348 241.627 250.076C241.731 249.804 241.89 249.557 242.094 249.35C242.298 249.142 242.542 248.98 242.813 248.872C243.083 248.764 243.372 248.714 243.663 248.724C243.953 248.719 244.241 248.773 244.509 248.885C244.777 248.997 245.019 249.163 245.22 249.372C245.421 249.582 245.576 249.831 245.675 250.104C245.775 250.377 245.816 250.667 245.798 250.957C245.791 251.02 245.784 251.118 245.777 251.195ZM242.277 250.628H245.077C245.077 250.257 244.929 249.901 244.667 249.638C244.404 249.376 244.048 249.228 243.677 249.228C243.306 249.228 242.95 249.376 242.687 249.638C242.425 249.901 242.277 250.257 242.277 250.628Z" fill="#263238"/>
<path d="M253.344 248.766L251.727 253.092H250.978L249.732 249.809L248.5 253.092H247.751L246.141 248.766H246.883L248.143 252.21L249.445 248.766H250.11L251.391 252.231L252.679 248.766H253.344Z" fill="#263238"/>
<path d="M257.908 251.195H254.408C254.459 251.566 254.649 251.903 254.941 252.137C255.233 252.372 255.603 252.485 255.976 252.455C256.209 252.464 256.441 252.422 256.656 252.333C256.871 252.243 257.064 252.108 257.222 251.937L257.656 252.441C257.336 252.765 256.929 252.989 256.484 253.087C256.04 253.184 255.576 253.151 255.15 252.991C254.724 252.831 254.353 252.552 254.082 252.186C253.811 251.82 253.652 251.383 253.624 250.929C253.609 250.639 253.655 250.348 253.758 250.076C253.862 249.804 254.021 249.557 254.225 249.35C254.429 249.142 254.673 248.98 254.944 248.872C255.214 248.764 255.503 248.714 255.794 248.724C256.085 248.718 256.374 248.772 256.643 248.883C256.912 248.994 257.154 249.16 257.356 249.37C257.557 249.58 257.713 249.829 257.813 250.102C257.912 250.376 257.954 250.667 257.936 250.957C257.929 251.02 257.915 251.118 257.908 251.195ZM254.408 250.628H257.208C257.208 250.257 257.06 249.901 256.798 249.638C256.535 249.376 256.179 249.228 255.808 249.228C255.437 249.228 255.081 249.376 254.818 249.638C254.555 249.901 254.408 250.257 254.408 250.628Z" fill="#263238"/>
<path d="M263.494 250.929C263.51 251.221 263.464 251.514 263.361 251.787C263.257 252.061 263.097 252.31 262.891 252.518C262.686 252.727 262.439 252.89 262.167 252.997C261.894 253.104 261.602 253.153 261.31 253.141C261.012 253.154 260.715 253.093 260.445 252.965C260.176 252.837 259.942 252.645 259.763 252.406V253.106H259V247.051H259.784V249.431C259.964 249.204 260.194 249.023 260.457 248.901C260.719 248.779 261.007 248.721 261.296 248.731C261.588 248.717 261.88 248.764 262.153 248.87C262.426 248.975 262.674 249.137 262.881 249.344C263.088 249.551 263.25 249.799 263.355 250.072C263.461 250.345 263.508 250.637 263.494 250.929ZM262.703 250.929C262.689 250.645 262.593 250.371 262.425 250.141C262.257 249.911 262.026 249.735 261.759 249.635C261.492 249.536 261.202 249.516 260.925 249.579C260.648 249.643 260.395 249.786 260.198 249.991C260.001 250.197 259.868 250.456 259.817 250.735C259.765 251.015 259.797 251.304 259.908 251.566C260.019 251.829 260.204 252.052 260.441 252.21C260.678 252.368 260.955 252.453 261.24 252.455C261.44 252.465 261.64 252.432 261.826 252.358C262.013 252.283 262.181 252.17 262.319 252.026C262.458 251.881 262.564 251.708 262.63 251.519C262.697 251.33 262.721 251.129 262.703 250.929Z" fill="#263238"/>
<path d="M264.117 252.581C264.115 252.508 264.128 252.434 264.155 252.366C264.182 252.298 264.223 252.236 264.274 252.183C264.326 252.131 264.388 252.09 264.456 252.062C264.524 252.034 264.597 252.02 264.67 252.021C264.819 252.021 264.961 252.08 265.066 252.185C265.171 252.29 265.23 252.432 265.23 252.581C265.23 252.729 265.171 252.872 265.066 252.977C264.961 253.082 264.819 253.141 264.67 253.141C264.597 253.141 264.524 253.126 264.457 253.098C264.389 253.07 264.328 253.029 264.276 252.977C264.225 252.924 264.184 252.863 264.157 252.795C264.13 252.727 264.116 252.654 264.117 252.581Z" fill="#263238"/>
<path d="M265.839 250.929C265.833 250.631 265.888 250.334 266.002 250.058C266.116 249.782 266.286 249.533 266.501 249.326C266.716 249.118 266.971 248.958 267.252 248.855C267.532 248.751 267.83 248.707 268.128 248.724C268.477 248.705 268.825 248.78 269.134 248.943C269.444 249.106 269.703 249.349 269.885 249.648L269.29 250.033C269.165 249.836 268.991 249.674 268.785 249.565C268.579 249.456 268.347 249.402 268.114 249.41C267.728 249.436 267.366 249.608 267.102 249.891C266.838 250.173 266.691 250.546 266.691 250.933C266.691 251.319 266.838 251.692 267.102 251.974C267.366 252.257 267.728 252.429 268.114 252.455C268.347 252.463 268.577 252.41 268.783 252.302C268.989 252.194 269.164 252.035 269.29 251.839L269.885 252.21C269.703 252.509 269.444 252.754 269.135 252.918C268.826 253.082 268.478 253.159 268.128 253.141C267.83 253.157 267.531 253.112 267.251 253.008C266.971 252.903 266.715 252.742 266.501 252.535C266.286 252.327 266.116 252.077 266.002 251.801C265.888 251.525 265.833 251.228 265.839 250.929Z" fill="#263238"/>
<path d="M270.438 250.929C270.431 250.483 270.557 250.046 270.799 249.672C271.041 249.298 271.389 249.005 271.799 248.829C272.208 248.653 272.661 248.603 273.099 248.686C273.537 248.768 273.941 248.978 274.259 249.29C274.577 249.602 274.795 250.002 274.885 250.438C274.975 250.875 274.934 251.328 274.766 251.741C274.598 252.154 274.311 252.507 273.942 252.756C273.573 253.006 273.138 253.14 272.692 253.141C272.396 253.155 272.1 253.107 271.823 253.001C271.547 252.895 271.295 252.734 271.083 252.526C270.872 252.318 270.705 252.07 270.594 251.795C270.483 251.52 270.43 251.225 270.438 250.929ZM274.141 250.929C274.141 250.543 273.988 250.173 273.715 249.899C273.441 249.626 273.071 249.473 272.685 249.473C272.299 249.473 271.928 249.626 271.655 249.899C271.382 250.173 271.229 250.543 271.229 250.929C271.229 251.315 271.382 251.686 271.655 251.959C271.928 252.232 272.299 252.385 272.685 252.385C273.071 252.385 273.441 252.232 273.715 251.959C273.988 251.686 274.141 251.315 274.141 250.929Z" fill="#263238"/>
<path d="M283.199 250.6V253.085H282.422V250.684C282.422 249.837 282.009 249.424 281.302 249.424C281.117 249.416 280.933 249.449 280.763 249.52C280.593 249.591 280.44 249.699 280.316 249.836C280.193 249.973 280.101 250.136 280.047 250.313C279.994 250.49 279.98 250.676 280.007 250.859V253.085H279.223V250.684C279.223 249.837 278.81 249.424 278.103 249.424C277.918 249.416 277.734 249.449 277.564 249.52C277.394 249.591 277.241 249.699 277.117 249.836C276.994 249.973 276.902 250.136 276.848 250.313C276.795 250.49 276.781 250.676 276.808 250.859V253.085H276.024V248.759H276.773V249.403C276.945 249.173 277.171 248.989 277.431 248.867C277.691 248.745 277.977 248.688 278.264 248.703C278.565 248.683 278.866 248.747 279.132 248.89C279.398 249.032 279.619 249.246 279.769 249.508C279.958 249.246 280.209 249.035 280.5 248.895C280.791 248.754 281.112 248.688 281.435 248.703C281.683 248.685 281.932 248.722 282.164 248.813C282.395 248.904 282.603 249.046 282.773 249.228C282.942 249.41 283.068 249.628 283.142 249.865C283.216 250.103 283.235 250.354 283.199 250.6Z" fill="#263238"/>
<path d="M282.94 255.934C282.94 256.032 266.427 256.116 246.071 256.116C225.715 256.116 209.195 256.032 209.195 255.934C209.195 255.836 225.701 255.752 246.071 255.752C266.441 255.752 282.94 255.829 282.94 255.934Z" fill="#263238"/>
<path d="M205.898 154.616V158.949H210.231V154.616V150.276H205.898V154.616Z" fill="#263238"/>
<path d="M210.231 128.611H205.898V132.944H210.231V128.611Z" fill="#263238"/>
<path d="M237.013 176.323H232.68V180.656H237.013V176.323Z" fill="#263238"/>
<path d="M210.231 137.277V141.61H205.898V145.943H210.231V150.276H214.564H218.904V154.616H223.237V150.276H227.57V145.943V141.61H223.237V145.943H218.904H214.564V141.61V137.277V132.944H210.231V137.277Z" fill="#263238"/>
<path d="M218.904 128.611H214.564V132.944H218.904H223.237V128.611H218.904Z" fill="#263238"/>
<path d="M238.406 163.45H240.73V159.117H238.406H236.075V163.45H238.406Z" fill="#263238"/>
<path d="M227.57 132.944H223.237V137.277H227.57V132.944Z" fill="#263238"/>
<path d="M257.908 150.276H253.575V154.609H257.908V150.276Z" fill="#263238"/>
<path d="M262.241 102.606H257.908V106.939H262.241V102.606Z" fill="#263238"/>
<path d="M236.236 137.277V132.944H240.569V128.611H236.236V124.278H231.903V128.611H227.57V132.944H231.903V137.277V141.61V145.943V150.276H236.236V145.943V141.61H240.569V137.277H236.236Z" fill="#263238"/>
<path d="M257.908 180.614H262.241V176.281H257.908H253.575V180.614H257.908Z" fill="#263238"/>
<path d="M253.575 102.606H249.242V106.939H253.575V102.606Z" fill="#263238"/>
<path d="M252.49 137.277V132.944H248.157V128.611H243.824V132.944V137.277H239.491V141.61H243.824H248.157V137.277H252.49Z" fill="#263238"/>
<path d="M276.948 128.611H272.615V132.944H276.948V128.611Z" fill="#263238"/>
<path d="M232.029 150.276H227.696V154.609H232.029V150.276Z" fill="#263238"/>
<path d="M249.242 124.278V119.945H253.575V115.605H257.908H262.241V111.272H257.908V106.939H253.575V111.272H249.242V115.605H244.902V119.945H240.569V124.278H244.902H249.242Z" fill="#263238"/>
<path d="M249.242 154.616V150.276H253.575V145.943H249.242H244.902V150.276H240.569V154.616H244.902H249.242Z" fill="#263238"/>
<path d="M262.241 171.948V167.608H257.908H253.575V163.275H249.242V167.608H244.902V171.948H240.569H236.236V176.281H240.569H244.902H249.242V171.948H253.575V176.281H257.908V171.948H262.241Z" fill="#263238"/>
<path d="M244.902 106.939V102.606H240.569H236.236V106.939H231.903V111.272H236.236H240.569V106.939H244.902Z" fill="#263238"/>
<path d="M244.902 111.272H240.569V115.605H244.902V111.272Z" fill="#263238"/>
<path d="M255.738 128.611H251.405V132.944V137.277V141.61H255.738H260.071V137.277H255.738V132.944H260.071V128.611H264.404V124.278H260.071V119.945H255.738V124.278V128.611Z" fill="#263238"/>
<path d="M240.569 115.605H236.236V119.938H240.569V115.605Z" fill="#263238"/>
<path d="M253.575 158.949V163.282H257.908H262.241V158.949H266.574H270.907V154.616H266.574H262.241H257.908V158.949H253.575Z" fill="#263238"/>
<path d="M276.948 141.61H272.615V145.943H276.948V141.61Z" fill="#263238"/>
<path d="M262.241 145.943H257.908V150.276H262.241V145.943Z" fill="#263238"/>
<path d="M273.077 132.944H268.744H264.404V137.277H268.744V141.61H273.077V137.277V132.944Z" fill="#263238"/>
<path d="M270.907 145.943H266.574V150.276H270.907V145.943Z" fill="#263238"/>
<path d="M223.237 172.032H236.243V154.609H218.82V158.949H214.571V163.282H218.82V167.615H214.571V171.948H218.82V172.032H218.904V176.281H214.571V184.947H218.904V180.6H223.237V172.032ZM232.904 157.941V168.777H222.068V157.941H232.904Z" fill="#263238"/>
<path d="M279.573 154.616H283.906V150.276H279.573H275.24H270.907V154.616H275.24H279.573Z" fill="#263238"/>
<path d="M279.573 137.277H283.906V132.944V128.611H279.573V132.944V137.277Z" fill="#263238"/>
<path d="M245.07 159.117H240.73V163.45V167.783H245.07V163.45V159.117Z" fill="#263238"/>
<path d="M288.239 154.616H283.906V158.949H288.239V154.616Z" fill="#263238"/>
<path d="M288.246 145.943V141.61H283.906V145.943V150.276H288.246V145.943Z" fill="#263238"/>
<path d="M210.231 176.281H205.898V180.614V184.947H210.231V180.614V176.281Z" fill="#263238"/>
<path d="M288.246 124.278V102.578H266.546V124.278H288.246ZM269.822 121.023V105.854H284.991V121.023H269.822Z" fill="#263238"/>
<path d="M281.743 109.109H273.077V117.775H281.743V109.109Z" fill="#263238"/>
<path d="M288.246 163.282H266.546V184.947H288.246V163.282ZM269.822 181.699V166.53H284.991V181.699H269.822Z" fill="#263238"/>
<path d="M281.743 169.778H273.077V178.444H281.743V169.778Z" fill="#263238"/>
<path d="M205.849 102.606V124.306H227.5V102.606H205.849ZM224.266 105.854V121.023H209.097V105.854H224.266Z" fill="#263238"/>
<path d="M221.011 109.109H212.345V117.775H221.011V109.109Z" fill="#263238"/>
<path d="M199.668 117.712V102.312C199.569 100.899 200.004 99.5003 200.886 98.392C201.414 97.809 202.064 97.3499 202.79 97.0474C203.516 96.7448 204.3 96.6064 205.086 96.642H221.27C221.398 96.642 221.521 96.5911 221.612 96.5005C221.702 96.4099 221.753 96.2871 221.753 96.159C221.753 96.0309 221.702 95.908 221.612 95.8174C221.521 95.7269 221.398 95.676 221.27 95.676H205.282C203.928 95.608 202.585 95.9469 201.425 96.649C200.591 97.204 199.907 97.955 199.431 98.8361C198.955 99.7172 198.702 100.702 198.695 101.703C198.653 104.237 198.695 106.778 198.695 109.305V117.705C198.709 117.824 198.767 117.934 198.856 118.013C198.946 118.093 199.062 118.137 199.182 118.137C199.301 118.137 199.417 118.093 199.507 118.013C199.596 117.934 199.654 117.824 199.668 117.705V117.712Z" fill="#150A87"/>
<path d="M219.87 192.269H204.47C203.057 192.364 201.66 191.93 200.55 191.051C199.968 190.522 199.509 189.872 199.207 189.146C198.904 188.42 198.765 187.637 198.8 186.851V170.646C198.8 170.518 198.749 170.395 198.659 170.304C198.568 170.214 198.445 170.163 198.317 170.163C198.189 170.163 198.066 170.214 197.975 170.304C197.885 170.395 197.834 170.518 197.834 170.646V186.655C197.767 188.009 198.106 189.352 198.807 190.512C199.362 191.345 200.113 192.029 200.994 192.504C201.876 192.979 202.86 193.23 203.861 193.235C206.395 193.277 208.929 193.235 211.463 193.235H219.863C219.991 193.235 220.114 193.184 220.205 193.093C220.295 193.003 220.346 192.88 220.346 192.752C220.346 192.624 220.295 192.501 220.205 192.41C220.114 192.32 219.991 192.269 219.863 192.269H219.87Z" fill="#150A87"/>
<path d="M293.958 170.492V185.892C294.057 187.305 293.622 188.704 292.74 189.812C292.212 190.395 291.562 190.855 290.836 191.157C290.11 191.46 289.326 191.598 288.54 191.562H272.335C272.207 191.562 272.084 191.613 271.993 191.703C271.903 191.794 271.852 191.917 271.852 192.045C271.852 192.173 271.903 192.296 271.993 192.387C272.084 192.477 272.207 192.528 272.335 192.528H288.344C289.698 192.596 291.041 192.257 292.201 191.555C293.034 191 293.718 190.249 294.193 189.368C294.668 188.486 294.919 187.502 294.924 186.501C294.973 183.967 294.924 181.433 294.924 178.899V170.499C294.924 170.371 294.873 170.248 294.783 170.157C294.692 170.067 294.569 170.016 294.441 170.016C294.313 170.016 294.19 170.067 294.099 170.157C294.009 170.248 293.958 170.371 293.958 170.499V170.492Z" fill="#150A87"/>
<path d="M272.615 96.649H288.015C289.429 96.5524 290.828 96.9895 291.935 97.874C292.52 98.4005 292.98 99.0504 293.283 99.7769C293.586 100.503 293.723 101.288 293.685 102.074V118.3C293.685 118.428 293.736 118.551 293.826 118.642C293.917 118.732 294.04 118.783 294.168 118.783C294.296 118.783 294.419 118.732 294.51 118.642C294.6 118.551 294.651 118.428 294.651 118.3V102.27C294.719 100.914 294.38 99.5682 293.678 98.406C293.123 97.5729 292.372 96.8888 291.491 96.414C290.609 95.9392 289.625 95.6882 288.624 95.683C286.09 95.641 283.556 95.683 281.022 95.683H272.622C272.494 95.683 272.371 95.7339 272.28 95.8244C272.19 95.915 272.139 96.0379 272.139 96.166C272.139 96.2941 272.19 96.4169 272.28 96.5075C272.371 96.5981 272.494 96.649 272.622 96.649H272.615Z" fill="#150A87"/>
</svg>
